<svg width="675" height="396" viewBox="0 0 675 396" fill="none" xmlns="http://www.w3.org/2000/svg">
<g style="mix-blend-mode:plus-lighter">
<path d="M369.102 96.686H376.29V82.3371H369.102V96.686Z" fill="#FFF"/>
<path d="M364.457 80.8703C364.457 82.1435 365.479 83.1861 366.723 83.1861H378.665C379.912 83.1861 380.934 82.1435 380.934 80.8703V78.6289C380.934 77.3557 379.912 76.3145 378.665 76.3145H366.723C365.479 76.3145 364.457 77.3557 364.457 78.6289V80.8703Z" fill="#FFF"/>
<path d="M369.496 89.5122H375.893C377.141 89.5122 378.159 90.5534 378.159 91.828V96.61H367.229V91.828C367.229 90.5534 368.248 89.5122 369.496 89.5122Z" fill="#FFF"/>
<path d="M367.518 93.2914H377.874C379.121 93.2914 380.14 94.3326 380.14 95.6072V100.388H365.25V95.6072C365.25 94.3326 366.27 93.2914 367.518 93.2914Z" fill="#FFF"/>
<path d="M354.929 61.8683C354.929 71.8848 362.881 80.0052 372.695 80.0052C382.508 80.0052 390.462 71.8848 390.462 61.8683C390.462 51.8545 382.508 43.7356 372.695 43.7356C362.881 43.7356 354.929 51.8545 354.929 61.8683Z" fill="#F8FCFF"/>
<path d="M355.719 61.8687C355.719 71.4227 363.336 79.195 372.695 79.195C382.055 79.195 389.671 71.4227 389.671 61.8687C389.671 52.3175 382.055 44.5452 372.695 44.5452C363.336 44.5452 355.719 52.3175 355.719 61.8687ZM359.569 75.2666C356.064 71.6876 354.132 66.9299 354.132 61.8687C354.132 56.8102 356.064 52.0526 359.569 48.4736C363.076 44.896 367.738 42.9253 372.695 42.9253C377.652 42.9253 382.313 44.896 385.821 48.4736C389.327 52.0526 391.256 56.8102 391.256 61.8687C391.256 66.9299 389.327 71.6876 385.821 75.2666C382.313 78.8441 377.652 80.8148 372.695 80.8148C367.738 80.8148 363.076 78.8441 359.569 75.2666Z" fill="#FFF"/>
<path d="M372.695 43.7356C362.881 43.7356 354.929 51.8545 354.929 61.8683C354.929 71.8848 362.881 80.0052 372.695 80.0052C382.508 80.0052 390.462 71.8848 390.462 61.8683C390.462 51.8545 382.508 43.7356 372.695 43.7356ZM372.695 44.6608C374.971 44.6608 377.179 45.1162 379.258 46.0127C381.266 46.8792 383.069 48.1209 384.619 49.7006C386.168 51.2817 387.382 53.122 388.231 55.17C389.11 57.291 389.557 59.5467 389.557 61.8683C389.557 64.1927 389.11 66.4469 388.231 68.5665C387.382 70.6174 386.168 72.4577 384.619 74.0374C383.069 75.6199 381.266 76.8602 379.258 77.7252C377.179 78.6232 374.971 79.0786 372.695 79.0786C370.418 79.0786 368.21 78.6232 366.132 77.7252C364.124 76.8602 362.321 75.6199 360.77 74.0374C359.224 72.4563 358.007 70.6174 357.16 68.5665C356.277 66.4469 355.835 64.1927 355.835 61.8683C355.835 59.5467 356.277 57.291 357.16 55.17C358.007 53.122 359.224 51.2817 360.77 49.7006C362.321 48.1209 364.124 46.8792 366.132 46.0127C368.21 45.1162 370.418 44.6608 372.695 44.6608Z" fill="#FFF"/>
<path d="M367.463 56.489L372.472 60.499C372.545 60.4861 372.62 60.479 372.696 60.479C373.449 60.479 374.06 61.102 374.06 61.8682C374.06 62.6387 373.449 63.2617 372.696 63.2617C371.945 63.2617 371.332 62.6387 371.332 61.8682C371.332 61.8138 371.336 61.7593 371.341 61.7063L367.463 56.489Z" fill="#FFF"/>
<path d="M371.11 52.892C371.122 52.892 371.134 52.892 371.143 52.8891C371.246 52.8705 371.317 52.7702 371.295 52.6671L370.335 47.0974C370.317 46.9929 370.219 46.9213 370.116 46.9399C370.015 46.9585 369.944 47.0587 369.962 47.1633L370.924 52.7344C370.941 52.8275 371.02 52.892 371.11 52.892Z" fill="#FFF"/>
<path d="M369.575 53.3125C369.598 53.3125 369.619 53.3068 369.64 53.2996C369.738 53.2624 369.787 53.1521 369.752 53.0533L367.858 47.7385C367.823 47.6383 367.713 47.5881 367.615 47.6239C367.518 47.6597 367.466 47.77 367.501 47.8717L369.397 53.185C369.426 53.2624 369.497 53.3125 369.575 53.3125Z" fill="#FFF"/>
<path d="M368.132 53.9969C368.166 53.9969 368.2 53.9883 368.228 53.9712C368.319 53.9196 368.35 53.8007 368.297 53.7091L365.527 48.811C365.476 48.7194 365.36 48.6865 365.267 48.7409C365.177 48.7939 365.146 48.9113 365.201 49.003L367.97 53.9024C368.005 53.964 368.069 53.9969 368.132 53.9969Z" fill="#FFF"/>
<path d="M366.831 54.9309C366.876 54.9309 366.918 54.9152 366.955 54.8851C367.032 54.8178 367.044 54.6946 366.976 54.6144L363.413 50.2807C363.347 50.199 363.226 50.189 363.148 50.2563C363.066 50.325 363.056 50.4454 363.124 50.5284L366.685 54.8607C366.723 54.9066 366.778 54.9309 366.831 54.9309Z" fill="#FFF"/>
<path d="M383.93 71.683C383.985 71.683 384.037 71.6601 384.075 71.6143C384.142 71.5341 384.133 71.4109 384.051 71.3436L379.805 67.7073C379.725 67.6385 379.606 67.65 379.54 67.7302C379.472 67.8118 379.485 67.935 379.564 68.0023L383.81 71.6386C383.845 71.6701 383.887 71.683 383.93 71.683Z" fill="#FFF"/>
<path d="M365.707 56.0781C365.761 56.0781 365.815 56.0538 365.851 56.0094C365.917 55.9278 365.909 55.806 365.83 55.7373L361.581 52.101C361.503 52.0323 361.383 52.0437 361.315 52.1253C361.249 52.2055 361.26 52.3287 361.338 52.396L365.585 56.0337C365.621 56.0638 365.663 56.0781 365.707 56.0781Z" fill="#FFF"/>
<path d="M385.396 69.5465C385.459 69.5465 385.524 69.5121 385.56 69.4506C385.612 69.3575 385.581 69.24 385.49 69.1856L380.691 66.3585C380.601 66.3055 380.485 66.337 380.434 66.4301C380.38 66.5218 380.41 66.6406 380.503 66.6922L385.301 69.5207C385.329 69.5393 385.363 69.5465 385.396 69.5465Z" fill="#FFF"/>
<path d="M364.794 57.4072C364.858 57.4072 364.923 57.3728 364.957 57.3098C365.01 57.2167 364.979 57.0993 364.886 57.0463L360.089 54.2192C359.999 54.1662 359.882 54.1977 359.831 54.2894C359.779 54.381 359.811 54.4999 359.899 54.5543L364.7 57.38C364.731 57.3986 364.762 57.4072 364.794 57.4072Z" fill="#FFF"/>
<path d="M386.477 67.1823C386.553 67.1823 386.627 67.1336 386.654 67.0548C386.689 66.9545 386.638 66.8428 386.542 66.807L381.336 64.875C381.236 64.8392 381.129 64.8893 381.09 64.9882C381.058 65.0898 381.107 65.2001 381.206 65.2359L386.411 67.1708C386.432 67.1794 386.453 67.1823 386.477 67.1823Z" fill="#FFF"/>
<path d="M364.122 58.8783C364.198 58.8783 364.272 58.8296 364.298 58.7508C364.334 58.652 364.284 58.5389 364.187 58.5045L358.981 56.5697C358.882 56.5338 358.773 56.5854 358.738 56.6842C358.703 56.7845 358.752 56.8962 358.85 56.9305L364.056 58.8669C364.08 58.874 364.101 58.8783 364.122 58.8783Z" fill="#FFF"/>
<path d="M387.138 64.6629C387.228 64.6629 387.306 64.5956 387.323 64.5025C387.343 64.3994 387.273 64.2977 387.172 64.2791L381.713 63.298C381.609 63.278 381.511 63.3496 381.494 63.4527C381.476 63.5587 381.545 63.6589 381.648 63.6776L387.104 64.66C387.117 64.6615 387.125 64.6629 387.138 64.6629Z" fill="#FFF"/>
<path d="M363.711 60.4446C363.803 60.4446 363.88 60.3801 363.897 60.2856C363.916 60.1811 363.847 60.0808 363.745 60.0636L358.286 59.0797C358.184 59.0625 358.084 59.1313 358.067 59.2373C358.049 59.3418 358.118 59.4421 358.22 59.4607L363.678 60.4417C363.69 60.4432 363.7 60.4446 363.711 60.4446Z" fill="#FFF"/>
<path d="M381.818 62.063H387.358C387.466 62.063 387.549 61.9755 387.549 61.8679C387.549 61.7618 387.466 61.6757 387.358 61.6757H381.818C381.713 61.6757 381.627 61.7618 381.627 61.8679C381.627 61.9755 381.713 62.063 381.818 62.063Z" fill="#FFF"/>
<path d="M358.031 62.063H363.573C363.677 62.063 363.761 61.9755 363.761 61.8679C363.761 61.7618 363.677 61.6757 363.573 61.6757H358.031C357.925 61.6757 357.842 61.7618 357.842 61.8679C357.842 61.9755 357.925 62.063 358.031 62.063Z" fill="#FFF"/>
<path d="M358.254 64.6629C358.265 64.6629 358.278 64.6615 358.286 64.66L363.745 63.6776C363.847 63.6589 363.916 63.5587 363.897 63.4527C363.878 63.3496 363.78 63.278 363.678 63.298L358.22 64.2791C358.118 64.2977 358.049 64.3994 358.067 64.5025C358.084 64.5956 358.163 64.6629 358.254 64.6629Z" fill="#FFF"/>
<path d="M381.679 60.4446C381.692 60.4446 381.702 60.4432 381.713 60.4417L387.172 59.4607C387.273 59.4421 387.343 59.3418 387.323 59.2373C387.304 59.1313 387.207 59.0611 387.104 59.0797L381.648 60.0636C381.545 60.0808 381.476 60.1811 381.494 60.2856C381.511 60.3801 381.59 60.4446 381.679 60.4446Z" fill="#FFF"/>
<path d="M381.271 58.8783C381.292 58.8783 381.314 58.874 381.336 58.8669L386.542 56.9305C386.638 56.8962 386.689 56.7845 386.654 56.6842C386.617 56.5854 386.511 56.5324 386.411 56.5697L381.206 58.5045C381.107 58.5389 381.058 58.652 381.09 58.7508C381.121 58.8296 381.192 58.8783 381.271 58.8783Z" fill="#FFF"/>
<path d="M358.913 67.1823C358.937 67.1823 358.958 67.1794 358.981 67.1708L364.187 65.2359C364.284 65.2001 364.334 65.0898 364.298 64.9882C364.262 64.8893 364.156 64.8378 364.056 64.875L358.85 66.807C358.752 66.8428 358.703 66.9545 358.738 67.0548C358.766 67.1336 358.837 67.1823 358.913 67.1823Z" fill="#FFF"/>
<path d="M359.996 69.5465C360.027 69.5465 360.061 69.5393 360.089 69.5207L364.886 66.6922C364.979 66.6406 365.01 66.5218 364.957 66.4301C364.906 66.337 364.792 66.3055 364.7 66.3585L359.899 69.1856C359.811 69.24 359.779 69.3575 359.831 69.4506C359.866 69.5121 359.93 69.5465 359.996 69.5465Z" fill="#FFF"/>
<path d="M380.596 57.4072C380.629 57.4072 380.663 57.3986 380.691 57.38L385.49 54.5543C385.581 54.4999 385.612 54.381 385.56 54.2894C385.506 54.1977 385.391 54.1662 385.301 54.2192L380.503 57.0463C380.41 57.0993 380.38 57.2167 380.434 57.3098C380.468 57.3714 380.531 57.4072 380.596 57.4072Z" fill="#FFF"/>
<path d="M379.684 56.0781C379.725 56.0781 379.77 56.0638 379.805 56.0337L384.051 52.396C384.133 52.3287 384.142 52.2055 384.075 52.1253C384.006 52.0437 383.887 52.0323 383.81 52.101L379.564 55.7373C379.485 55.806 379.472 55.9278 379.54 56.0094C379.575 56.0538 379.63 56.0781 379.684 56.0781Z" fill="#FFF"/>
<path d="M361.462 71.683C361.503 71.683 361.546 71.6701 361.581 71.6386L365.83 68.0009C365.909 67.935 365.917 67.8118 365.851 67.7302C365.784 67.65 365.663 67.6385 365.585 67.7073L361.338 71.3436C361.26 71.4109 361.249 71.5341 361.315 71.6143C361.352 71.6601 361.406 71.683 361.462 71.683Z" fill="#FFF"/>
<path d="M378.56 54.9309C378.612 54.9309 378.667 54.9066 378.703 54.8607L382.267 50.5284C382.333 50.4454 382.324 50.325 382.244 50.2563C382.165 50.189 382.043 50.199 381.977 50.2807L378.416 54.6144C378.347 54.6946 378.358 54.8178 378.437 54.8851C378.474 54.9152 378.515 54.9309 378.56 54.9309Z" fill="#FFF"/>
<path d="M377.258 53.9969C377.322 53.9969 377.385 53.964 377.422 53.9024L380.192 49.003C380.245 48.9113 380.214 48.7939 380.123 48.7409C380.033 48.6865 379.917 48.7194 379.865 48.811L377.094 53.7091C377.042 53.8007 377.073 53.9196 377.162 53.9712C377.193 53.9883 377.224 53.9969 377.258 53.9969Z" fill="#FFF"/>
<path d="M375.815 53.3125C375.894 53.3125 375.965 53.2624 375.993 53.185L377.889 47.8717C377.923 47.77 377.874 47.6597 377.776 47.6239C377.679 47.5881 377.569 47.6383 377.533 47.7385L375.64 53.0533C375.603 53.1521 375.654 53.2624 375.751 53.2996C375.773 53.3068 375.794 53.3125 375.815 53.3125Z" fill="#FFF"/>
<path d="M374.279 52.892C374.37 52.892 374.447 52.8275 374.464 52.7344L375.427 47.1633C375.447 47.0587 375.378 46.9585 375.273 46.9399C375.17 46.9213 375.073 46.9914 375.056 47.0974L374.091 52.6671C374.076 52.7702 374.144 52.8705 374.247 52.8891C374.255 52.892 374.268 52.892 374.279 52.892Z" fill="#FFF"/>
<path d="M372.696 52.7515C372.8 52.7515 372.884 52.6642 372.884 52.5596V46.9025C372.884 46.7966 372.8 46.7106 372.696 46.7106C372.591 46.7106 372.508 46.7966 372.508 46.9025V52.5596C372.508 52.6642 372.591 52.7515 372.696 52.7515Z" fill="#FFF"/>
<path d="M367.76 72.6159C367.76 72.8779 367.969 73.0942 368.227 73.0942H377.162C377.421 73.0942 377.63 72.8779 377.63 72.6159C377.63 72.3523 377.421 72.1389 377.162 72.1389H368.227C367.969 72.1389 367.76 72.3523 367.76 72.6159Z" fill="#FFF"/>
<path d="M369.838 74.4161C369.838 74.6796 370.05 74.8945 370.309 74.8945H375.083C375.339 74.8945 375.55 74.6796 375.55 74.4161C375.55 74.154 375.339 73.9378 375.083 73.9378H370.309C370.05 73.9378 369.838 74.154 369.838 74.4161Z" fill="#FFF"/>
<path d="M424.589 314.162H410.018C403.546 314.162 398.285 308.791 398.285 302.185V169.321H403.7V302.185C403.7 305.741 406.535 308.637 410.018 308.637H424.589V314.162Z" fill="#FFF"/>
<path d="M597.918 349.537C601.286 349.537 604.023 346.741 604.023 343.304V290.007C604.023 282.869 609.716 277.06 616.707 277.06H640.701V283.776H616.707C613.342 283.776 610.6 286.57 610.6 290.007V343.304C610.6 350.442 604.909 356.249 597.918 356.249H577.357V349.537H597.918Z" fill="#FFF"/>
<path d="M610.601 342.347C611.119 342.347 611.54 342.772 611.54 343.304C611.54 350.971 605.43 357.21 597.919 357.21C597.397 357.21 596.979 356.78 596.979 356.249V349.536C596.979 349.008 597.397 348.578 597.919 348.578C600.769 348.578 603.085 346.212 603.085 343.304C603.085 342.772 603.508 342.347 604.024 342.347H610.601Z" fill="#FFF"/>
<path d="M604.023 290.967C603.507 290.967 603.086 290.536 603.086 290.007C603.086 282.341 609.196 276.104 616.707 276.104C617.228 276.104 617.647 276.533 617.647 277.061V283.776C617.647 284.302 617.228 284.734 616.707 284.734C613.86 284.734 611.539 287.1 611.539 290.007C611.539 290.536 611.118 290.967 610.6 290.967H604.023Z" fill="#FFF"/>
<path d="M627.346 284.26V276.555C627.346 275.664 628.059 274.936 628.929 274.936H632.859V285.874H628.929C628.059 285.874 627.346 285.146 627.346 284.26Z" fill="#FFF"/>
<path d="M630.419 286.556V274.26C630.419 272.838 631.556 271.678 632.943 271.678H639.214V289.132H632.943C631.556 289.132 630.419 287.971 630.419 286.556Z" fill="#FFF"/>
<path d="M554.476 292.47H500.371C493.902 292.47 488.634 287.1 488.634 280.496L488.637 225.276C488.637 211.561 477.706 200.403 464.267 200.403H425.062V213.3H464.267C470.737 213.3 475.998 218.672 475.998 225.276V280.496C475.998 294.21 486.934 305.37 500.371 305.37H554.476C560.946 305.37 566.213 310.742 566.213 317.344V395.999H578.849V317.344C578.849 303.63 567.919 292.47 554.476 292.47Z" fill="#FFF"/>
<path d="M488.637 227.12C489.635 227.12 490.443 226.295 490.443 225.276C490.443 210.545 478.702 198.561 464.267 198.561C463.269 198.561 462.461 199.384 462.461 200.404V213.301C462.461 214.317 463.269 215.144 464.267 215.144C469.741 215.144 474.196 219.689 474.196 225.276C474.196 226.295 475.005 227.12 475.998 227.12H488.637Z" fill="#FFF"/>
<path d="M578.849 319.186C579.845 319.186 580.655 318.362 580.655 317.344C580.655 302.613 568.913 290.629 554.476 290.629C553.481 290.629 552.673 291.453 552.673 292.47V305.37C552.673 306.385 553.481 307.212 554.476 307.212C559.954 307.212 564.41 311.757 564.41 317.344C564.41 318.362 565.217 319.186 566.213 319.186H578.849Z" fill="#FFF"/>
<path d="M475.998 278.653C475.002 278.653 474.195 279.478 474.195 280.496C474.195 295.224 485.935 307.212 500.371 307.212C501.369 307.212 502.177 306.385 502.177 305.37V292.47C502.177 291.454 501.369 290.629 500.371 290.629C494.899 290.629 490.443 286.081 490.443 280.496C490.443 279.478 489.635 278.653 488.635 278.653H475.998Z" fill="#FFF"/>
<path d="M475.998 262.076C475.002 262.076 474.195 262.899 474.195 263.919V265.762C474.195 266.779 475.002 267.602 475.998 267.602H488.635C489.635 267.602 490.443 266.779 490.443 265.762V263.919C490.443 262.899 489.635 262.076 488.635 262.076H475.998Z" fill="#FFF"/>
<path d="M566.21 361.83C565.217 361.83 564.41 361.003 564.41 359.989V346.34C564.41 345.325 565.217 344.497 566.21 344.497H578.85C579.846 344.497 580.656 345.325 580.656 346.34V359.989C580.656 361.003 579.846 361.83 578.85 361.83H566.21Z" fill="#FFF"/>
<path d="M566.213 395.999C565.217 395.999 564.41 395.175 564.41 394.156V392.314C564.41 391.296 565.217 390.474 566.213 390.474H578.85C579.846 390.474 580.656 391.296 580.656 392.314V394.156C580.656 395.175 579.846 395.999 578.85 395.999H566.213Z" fill="#FFF"/>
<path d="M271.631 178.626H297.726C304.196 178.626 309.462 173.253 309.462 166.65L309.46 122.823C309.46 109.109 320.392 97.9491 333.833 97.9491H408.259C421.7 97.9491 432.632 109.109 432.632 122.823V395.986H419.996V122.823C419.996 116.221 414.73 110.847 408.259 110.847H333.833C327.362 110.847 322.099 116.221 322.099 122.823V166.65C322.099 180.365 311.166 191.523 297.726 191.523H271.631C265.159 191.523 259.895 196.896 259.895 203.499V396.001H247.258V203.499C247.258 189.784 258.189 178.626 271.631 178.626Z" fill="#FFF"/>
<path d="M432.632 124.666C433.63 124.666 434.438 123.841 434.438 122.823C434.438 108.093 422.694 96.1061 408.259 96.1061C407.264 96.1061 406.456 96.9324 406.456 97.9493V110.847C406.456 111.864 407.264 112.691 408.259 112.691C413.735 112.691 418.19 117.236 418.19 122.823C418.19 123.841 418.998 124.666 419.996 124.666H432.632Z" fill="#FFF"/>
<path d="M387.694 112.691C388.69 112.691 389.498 111.864 389.498 110.847V97.9492C389.498 96.9324 388.69 96.106 387.694 96.106H357.697C356.702 96.106 355.891 96.9324 355.891 97.9492V110.847C355.891 111.864 356.702 112.691 357.697 112.691H387.694Z" fill="#FFF"/>
<path d="M309.46 124.666C308.465 124.666 307.654 123.841 307.654 122.823C307.654 108.093 319.398 96.1061 333.833 96.1061C334.831 96.1061 335.639 96.9324 335.639 97.9493V110.847C335.639 111.864 334.831 112.691 333.833 112.691C328.356 112.691 323.901 117.236 323.901 122.823C323.901 123.841 323.096 124.666 322.099 124.666H309.46Z" fill="#FFF"/>
<path d="M247.258 205.34C246.262 205.34 245.452 204.515 245.452 203.499C245.452 188.767 257.194 176.783 271.631 176.783C272.626 176.783 273.436 177.606 273.436 178.626V191.523C273.436 192.54 272.626 193.364 271.631 193.364C266.154 193.364 261.699 197.912 261.699 203.499C261.699 204.515 260.891 205.34 259.896 205.34H247.258Z" fill="#FFF"/>
<path d="M322.098 164.807C323.096 164.807 323.904 165.632 323.904 166.65C323.904 181.379 312.16 193.364 297.725 193.364C296.727 193.364 295.922 192.54 295.922 191.523V178.626C295.922 177.606 296.727 176.783 297.725 176.783C303.201 176.783 307.653 172.236 307.653 166.65C307.653 165.632 308.464 164.807 309.462 164.807H322.098Z" fill="#FFF"/>
<path d="M322.099 141.592C323.097 141.592 323.905 142.417 323.905 143.435V145.278C323.905 146.295 323.097 147.119 322.099 147.119H309.463C308.465 147.119 307.654 146.295 307.654 145.278V143.435C307.654 142.417 308.465 141.592 309.463 141.592H322.099Z" fill="#FFF"/>
<path d="M432.633 147.119C433.63 147.119 434.439 146.295 434.439 145.277V143.434C434.439 142.417 433.63 141.592 432.633 141.592H419.996C418.999 141.592 418.19 142.417 418.19 143.434V145.277C418.19 146.295 418.999 147.119 419.996 147.119H432.633Z" fill="#FFF"/>
<path d="M432.636 186.984C433.63 186.984 434.439 186.161 434.439 185.144V183.301C434.439 182.283 433.63 181.458 432.636 181.458H419.997C419 181.458 418.193 182.283 418.193 183.301V185.144C418.193 186.161 419 186.984 419.997 186.984H432.636Z" fill="#FFF"/>
<path d="M432.636 267.376C433.63 267.376 434.439 266.551 434.439 265.534V263.691C434.439 262.671 433.63 261.849 432.636 261.849H419.997C419 261.849 418.193 262.671 418.193 263.691V265.534C418.193 266.551 419 267.376 419.997 267.376H432.636Z" fill="#FFF"/>
<path d="M432.633 215.937C433.63 215.937 434.439 215.111 434.439 214.095V199.271C434.439 198.251 433.63 197.428 432.633 197.428H419.996C418.999 197.428 418.19 198.251 418.19 199.271V214.095C418.19 215.111 418.999 215.937 419.996 215.937H432.633Z" fill="#FFF"/>
<path d="M432.633 353.126C433.63 353.126 434.439 352.301 434.439 351.281V349.441C434.439 348.424 433.63 347.598 432.633 347.598H419.996C418.999 347.598 418.19 348.424 418.19 349.441V351.281C418.19 352.301 418.999 353.126 419.996 353.126H432.633Z" fill="#FFF"/>
<path d="M432.633 396.001C433.63 396.001 434.439 395.176 434.439 394.157V392.316C434.439 391.297 433.63 390.475 432.633 390.475H419.996C418.999 390.475 418.19 391.297 418.19 392.316V394.157C418.19 395.176 418.999 396.001 419.996 396.001H432.633Z" fill="#FFF"/>
<path d="M259.896 267.602C260.891 267.602 261.699 266.779 261.699 265.762V263.919C261.699 262.9 260.891 262.076 259.896 262.076H247.258C246.262 262.076 245.452 262.9 245.452 263.919V265.762C245.452 266.779 246.262 267.602 247.258 267.602H259.896Z" fill="#FFF"/>
<path d="M259.896 314.074C260.891 314.074 261.699 313.25 261.699 312.232V310.389C261.699 309.372 260.891 308.545 259.896 308.545H247.258C246.262 308.545 245.452 309.372 245.452 310.389V312.232C245.452 313.25 246.262 314.074 247.258 314.074H259.896Z" fill="#FFF"/>
<path d="M259.896 223.362C260.891 223.362 261.699 222.535 261.699 221.518V219.674C261.699 218.657 260.891 217.832 259.896 217.832H247.258C246.262 217.832 245.452 218.657 245.452 219.674V221.518C245.452 222.535 246.262 223.362 247.258 223.362H259.896Z" fill="#FFF"/>
<path d="M259.896 353.02C260.891 353.02 261.699 352.197 261.699 351.178V349.335C261.699 348.318 260.891 347.492 259.896 347.492H247.258C246.262 347.492 245.452 348.318 245.452 349.335V351.178C245.452 352.197 246.262 353.02 247.258 353.02H259.896Z" fill="#FFF"/>
<path d="M259.896 396.001C260.891 396.001 261.699 395.176 261.699 394.157V392.316C261.699 391.297 260.891 390.475 259.896 390.475H247.258C246.262 390.475 245.452 391.297 245.452 392.316V394.157C245.452 395.176 246.262 396.001 247.258 396.001H259.896Z" fill="#FFF"/>
<path d="M432.635 320.242C433.629 320.242 434.439 319.416 434.439 318.402V304.752C434.439 303.735 433.629 302.91 432.635 302.91H419.996C419 302.91 418.19 303.735 418.19 304.752V318.402C418.19 319.416 419 320.242 419.996 320.242H432.635Z" fill="#FFF"/>
<path d="M514.895 163.75H386.325C377.213 163.75 369.794 171.318 369.794 180.622V195.146C369.794 199.626 366.225 203.269 361.836 203.269H321.944C312.829 203.269 305.411 210.84 305.411 220.144L305.415 249.858H313.986L313.984 220.144C313.984 215.665 317.555 212.02 321.944 212.02H361.836C370.948 212.02 378.365 204.448 378.365 195.146V180.622C378.365 176.141 381.939 172.499 386.325 172.499H514.895C519.287 172.499 522.86 176.143 522.86 180.622V395.998H531.431V180.622C531.431 171.318 524.015 163.75 514.895 163.75Z" fill="#FFF"/>
<path d="M305.411 221.393C304.736 221.393 304.188 220.832 304.188 220.144C304.188 210.149 312.154 202.02 321.944 202.02C322.619 202.02 323.168 202.579 323.168 203.269V212.02C323.168 212.709 322.619 213.27 321.944 213.27C318.23 213.27 315.21 216.355 315.21 220.144C315.21 220.832 314.661 221.393 313.984 221.393H305.411Z" fill="#FFF"/>
<path d="M339.329 213.27C338.651 213.27 338.105 212.709 338.105 212.02V203.27C338.105 202.579 338.651 202.021 339.329 202.021H340.554C341.232 202.021 341.778 202.579 341.778 203.27V212.02C341.778 212.709 341.232 213.27 340.554 213.27H339.329Z" fill="#FFF"/>
<path d="M531.431 181.873C532.105 181.873 532.656 181.313 532.656 180.623C532.656 170.63 524.691 162.501 514.895 162.501C514.22 162.501 513.673 163.063 513.673 163.75V172.499C513.673 173.191 514.22 173.748 514.895 173.748C518.614 173.748 521.636 176.833 521.636 180.623C521.636 181.313 522.182 181.873 522.86 181.873H531.431Z" fill="#FFF"/>
<path d="M531.43 217.448C532.104 217.448 532.655 216.892 532.655 216.201V214.949C532.655 214.26 532.104 213.699 531.43 213.699H522.859C522.182 213.699 521.636 214.26 521.636 214.949V216.201C521.636 216.892 522.182 217.448 522.859 217.448H531.43Z" fill="#FFF"/>
<path d="M531.43 209.664C532.104 209.664 532.655 209.104 532.655 208.413V207.165C532.655 206.47 532.104 205.914 531.43 205.914H522.859C522.182 205.914 521.636 206.47 521.636 207.165V208.413C521.636 209.104 522.182 209.664 522.859 209.664H531.43Z" fill="#FFF"/>
<path d="M531.43 273.173C532.104 273.173 532.655 272.613 532.655 271.923V252.696C532.655 252.009 532.104 251.447 531.43 251.447H522.859C522.182 251.447 521.636 252.009 521.636 252.696V271.923C521.636 272.613 522.182 273.173 522.859 273.173H531.43Z" fill="#FFF"/>
<path d="M531.43 327.857C532.104 327.857 532.655 327.298 532.655 326.608V325.356C532.655 324.667 532.104 324.107 531.43 324.107H522.859C522.182 324.107 521.636 324.667 521.636 325.356V326.608C521.636 327.298 522.182 327.857 522.859 327.857H531.43Z" fill="#FFF"/>
<path d="M531.43 367.987C532.104 367.987 532.655 367.427 532.655 366.738V365.485C532.655 364.798 532.104 364.238 531.43 364.238H522.859C522.182 364.238 521.636 364.798 521.636 365.485V366.738C521.636 367.427 522.182 367.987 522.859 367.987H531.43Z" fill="#FFF"/>
<path d="M531.43 395.998C532.104 395.998 532.655 395.438 532.655 394.749V393.498C532.655 392.81 532.104 392.248 531.43 392.248H522.859C522.182 392.248 521.636 392.81 521.636 393.498V394.749C521.636 395.438 522.182 395.998 522.859 395.998H531.43Z" fill="#FFF"/>
<path d="M378.364 193.897C379.042 193.897 379.591 194.453 379.591 195.146C379.591 205.141 371.626 213.27 361.835 213.27C361.156 213.27 360.607 212.71 360.607 212.02V203.27C360.607 202.579 361.156 202.021 361.835 202.021C365.547 202.021 368.569 198.937 368.569 195.146C368.569 194.453 369.118 193.897 369.793 193.897H378.364Z" fill="#FFF"/>
<path d="M369.793 181.873C369.118 181.873 368.569 181.313 368.569 180.623C368.569 170.63 376.534 162.5 386.325 162.5C387.004 162.5 387.551 163.058 387.551 163.75V172.499C387.551 173.187 387.004 173.748 386.325 173.748C382.613 173.748 379.59 176.833 379.59 180.623C379.59 181.313 379.042 181.873 378.364 181.873H369.793Z" fill="#FFF"/>
<path d="M463.456 173.748C464.131 173.748 464.68 173.191 464.68 172.5V163.75C464.68 163.063 464.131 162.502 463.456 162.502H462.231C461.554 162.502 461.005 163.063 461.005 163.75V172.5C461.005 173.191 461.554 173.748 462.231 173.748H463.456Z" fill="#FFF"/>
<path d="M491.67 173.748C490.992 173.748 490.443 173.187 490.443 172.5V163.75C490.443 163.059 490.992 162.5 491.67 162.5H492.895C493.57 162.5 494.118 163.059 494.118 163.75V172.5C494.118 173.187 493.57 173.748 492.895 173.748H491.67Z" fill="#FFF"/>
<path d="M394.913 173.748C394.235 173.748 393.689 173.187 393.689 172.5V163.75C393.689 163.059 394.235 162.5 394.913 162.5H406.682C407.357 162.5 407.906 163.059 407.906 163.75V172.5C407.906 173.187 407.357 173.748 406.682 173.748H394.913Z" fill="#FFF"/>
<path d="M548.656 272.847V251.771C548.656 251.241 548.232 250.813 547.717 250.813H547.084C546.712 250.813 546.371 251.041 546.223 251.389L542.097 261.065H534.253V263.555H542.097L546.223 273.23C546.371 273.579 546.712 273.808 547.084 273.808H547.717C548.232 273.808 548.656 273.378 548.656 272.847Z" fill="#FFF"/>
<path d="M538.77 263.695V260.927C538.77 260.128 538.125 259.473 537.342 259.473H534.376V265.147H537.342C538.125 265.147 538.77 264.496 538.77 263.695Z" fill="#FFF"/>
<path d="M536.748 265.026V259.598C536.748 258.707 536.035 257.981 535.167 257.981H531.236V266.64H535.167C536.035 266.64 536.748 265.912 536.748 265.026Z" fill="#FFF"/>
<path d="M339.984 244.645H211.906C202.793 244.645 195.374 252.214 195.374 261.517V276.039C195.374 280.521 191.804 284.164 187.415 284.164H162.138C153.023 284.164 145.606 291.734 145.606 301.038V326.036L145.608 332.747H154.18L154.177 301.038C154.177 296.558 157.75 292.912 162.138 292.912H187.415C196.529 292.912 203.945 285.343 203.945 276.039V261.517C203.945 257.036 207.518 253.392 211.906 253.392H339.984C344.378 253.392 347.949 257.036 347.949 261.517V396.001H356.517V261.517C356.517 252.214 349.104 244.645 339.984 244.645Z" fill="#FFF"/>
<path d="M145.607 302.287C144.929 302.287 144.379 301.725 144.379 301.038C144.379 291.043 152.348 282.915 162.138 282.915C162.812 282.915 163.362 283.474 163.362 284.164V292.912C163.362 293.602 162.812 294.162 162.138 294.162C158.424 294.162 155.404 297.248 155.404 301.038C155.404 301.725 154.854 302.287 154.178 302.287H145.607Z" fill="#FFF"/>
<path d="M173.434 294.162C172.756 294.162 172.209 293.602 172.209 292.912V284.164C172.209 283.474 172.756 282.915 173.434 282.915H174.659C175.334 282.915 175.884 283.474 175.884 284.164V292.912C175.884 293.602 175.334 294.162 174.659 294.162H173.434Z" fill="#FFF"/>
<path d="M356.518 262.768C357.195 262.768 357.747 262.208 357.747 261.517C357.747 251.525 349.779 243.396 339.984 243.396C339.31 243.396 338.764 243.958 338.764 244.645V253.393C338.764 254.086 339.31 254.643 339.984 254.643C343.703 254.643 346.723 257.728 346.723 261.517C346.723 262.208 347.272 262.768 347.949 262.768H356.518Z" fill="#FFF"/>
<path d="M356.517 290.559C357.195 290.559 357.747 289.997 357.747 289.307V288.058C357.747 287.365 357.195 286.808 356.517 286.808H347.949C347.271 286.808 346.723 287.365 346.723 288.058V289.307C346.723 289.997 347.271 290.559 347.949 290.559H356.517Z" fill="#FFF"/>
<path d="M356.517 299.342C357.195 299.342 357.747 298.784 357.747 298.093V296.843C357.747 296.154 357.195 295.593 356.517 295.593H347.949C347.271 295.593 346.723 296.154 346.723 296.843V298.093C346.723 298.784 347.271 299.342 347.949 299.342H356.517Z" fill="#FFF"/>
<path d="M356.517 342.083C357.195 342.083 357.747 341.524 357.747 340.834V328.599C357.747 327.908 357.195 327.347 356.517 327.347H347.949C347.271 327.347 346.723 327.908 346.723 328.599V340.834C346.723 341.524 347.271 342.083 347.949 342.083H356.517Z" fill="#FFF"/>
<path d="M356.517 367.847C357.195 367.847 357.747 367.288 357.747 366.598V365.346C357.747 364.657 357.195 364.097 356.517 364.097H347.949C347.271 364.097 346.723 364.657 346.723 365.346V366.598C346.723 367.288 347.271 367.847 347.949 367.847H356.517Z" fill="#FFF"/>
<path d="M356.517 396.001C357.195 396.001 357.747 395.442 357.747 394.752V393.503C357.747 392.813 357.195 392.251 356.517 392.251H347.949C347.271 392.251 346.723 392.813 346.723 393.503V394.752C346.723 395.442 347.271 396.001 347.949 396.001H356.517Z" fill="#FFF"/>
<path d="M203.945 274.792C204.623 274.792 205.169 275.348 205.169 276.04C205.169 286.035 197.207 294.162 187.415 294.162C186.737 294.162 186.188 293.605 186.188 292.912V284.164C186.188 283.474 186.737 282.915 187.415 282.915C191.128 282.915 194.149 279.829 194.149 276.04C194.149 275.348 194.699 274.792 195.374 274.792H203.945Z" fill="#FFF"/>
<path d="M195.375 262.765C194.7 262.765 194.152 262.208 194.152 261.517C194.152 251.525 202.116 243.393 211.906 243.393C212.584 243.393 213.131 243.952 213.131 244.645V253.393C213.131 254.081 212.584 254.643 211.906 254.643C208.195 254.643 205.169 257.728 205.169 261.517C205.169 262.208 204.623 262.765 203.946 262.765H195.375Z" fill="#FFF"/>
<path d="M224.514 254.643C225.19 254.643 225.738 254.085 225.738 253.392V244.645C225.738 243.957 225.19 243.396 224.514 243.396H223.286C222.611 243.396 222.062 243.957 222.062 244.645V253.392C222.062 254.085 222.611 254.643 223.286 254.643H224.514Z" fill="#FFF"/>
<path d="M239.119 254.643C239.794 254.643 240.343 254.085 240.343 253.392V244.645C240.343 243.957 239.794 243.396 239.119 243.396H237.894C237.218 243.396 236.669 243.957 236.669 244.645V253.392C236.669 254.085 237.218 254.643 237.894 254.643H239.119Z" fill="#FFF"/>
<path d="M280.636 254.643C281.311 254.643 281.86 254.085 281.86 253.392V244.645C281.86 243.957 281.311 243.396 280.636 243.396H279.41C278.732 243.396 278.184 243.957 278.184 244.645V253.392C278.184 254.085 278.732 254.643 279.41 254.643H280.636Z" fill="#FFF"/>
<path d="M289.089 254.643C289.767 254.643 290.312 254.085 290.312 253.392V244.645C290.312 243.957 289.767 243.396 289.089 243.396H287.862C287.186 243.396 286.639 243.957 286.639 244.645V253.392C286.639 254.085 287.186 254.643 287.862 254.643H289.089Z" fill="#FFF"/>
<path d="M303.963 254.643C303.287 254.643 302.739 254.081 302.739 253.392V244.645C302.739 243.951 303.287 243.393 303.963 243.393H315.73C316.407 243.393 316.957 243.951 316.957 244.645V253.392C316.957 254.081 316.407 254.643 315.73 254.643H303.963Z" fill="#FFF"/>
<path d="M328.901 348.072V321.356C328.901 320.684 329.433 320.141 330.09 320.141H330.891C331.365 320.141 331.793 320.429 331.983 320.872L337.211 333.134H347.156V336.293H337.211L331.983 348.558C331.793 349.001 331.365 349.287 330.891 349.287H330.09C329.433 349.287 328.901 348.745 328.901 348.072Z" fill="#FFF"/>
<path d="M341.43 336.467V332.964C341.43 331.947 342.246 331.116 343.24 331.116H346.999V338.312H343.24C342.246 338.312 341.43 337.484 341.43 336.467Z" fill="#FFF"/>
<path d="M343.993 338.157V331.278C343.993 330.149 344.895 329.228 345.998 329.228H350.984V340.202H345.998C344.895 340.202 343.993 339.281 343.993 338.157Z" fill="#FFF"/>
<path d="M35.5257 22.8662L109.978 22.8648C119.092 22.8648 126.509 30.4352 126.509 39.7372V317.851C126.509 322.333 130.079 325.976 134.469 325.976H151.679H170.083C179.2 325.976 186.615 333.547 186.615 342.85V367.847L186.613 396.001H178.041L178.042 342.85C178.042 338.369 174.472 334.725 170.083 334.725H158.783H134.469C125.353 334.725 117.937 327.153 117.937 317.851V39.7372C117.937 35.2588 114.366 31.6154 109.978 31.6154H35.5257C31.1321 31.6154 27.5622 35.2602 27.5622 39.7386V116.348H18.9912V39.7386C18.9912 30.4352 26.406 22.8662 35.5257 22.8662Z" fill="#FFF"/>
<path d="M186.615 344.098C187.291 344.098 187.84 343.538 187.84 342.85C187.84 332.856 179.875 324.724 170.083 324.724C169.407 324.724 168.859 325.284 168.859 325.976V334.725C168.859 335.414 169.407 335.977 170.083 335.977C173.796 335.977 176.819 339.059 176.819 342.85C176.819 343.538 177.367 344.098 178.042 344.098H186.615Z" fill="#FFF"/>
<path d="M154.742 335.977C155.42 335.977 155.966 335.414 155.966 334.725V325.976C155.966 325.285 155.42 324.725 154.742 324.725H145.113C144.435 324.725 143.887 325.285 143.887 325.976V334.725C143.887 335.414 144.435 335.977 145.113 335.977H154.742Z" fill="#FFF"/>
<path d="M186.614 367.847C187.291 367.847 187.839 367.288 187.839 366.598V365.346C187.839 364.657 187.291 364.096 186.614 364.096H178.042C177.367 364.096 176.818 364.657 176.818 365.346V366.598C176.818 367.288 177.367 367.847 178.042 367.847H186.614Z" fill="#FFF"/>
<path d="M18.9911 40.9905C18.3161 40.9905 17.7646 40.4306 17.7646 39.7388C17.7646 29.748 25.7309 21.6176 35.5255 21.6176C36.2005 21.6176 36.7478 22.1776 36.7478 22.8664V31.6156C36.7478 32.3059 36.2005 32.8644 35.5255 32.8644C31.8097 32.8644 28.7872 35.9493 28.7872 39.7388C28.7872 40.4306 28.2385 40.9905 27.5621 40.9905H18.9911Z" fill="#FFF"/>
<path d="M18.9911 116.348C18.3161 116.348 17.7646 115.791 17.7646 115.099V113.849C17.7646 113.16 18.3161 112.599 18.9911 112.599H27.5621C28.2385 112.599 28.7872 113.16 28.7872 113.849V115.099C28.7872 115.791 28.2385 116.348 27.5621 116.348H18.9911Z" fill="#FFF"/>
<path d="M18.9911 85.6379C18.3161 85.6379 17.7646 85.0808 17.7646 84.3876V70.7104C17.7646 70.0201 18.3161 69.4587 18.9911 69.4587H27.5621C28.2385 69.4587 28.7872 70.0201 28.7872 70.7104V84.3876C28.7872 85.0808 28.2385 85.6379 27.5621 85.6379H18.9911Z" fill="#FFF"/>
<path d="M178.04 396.001C177.364 396.001 176.815 395.443 176.815 394.752V393.503C176.815 392.813 177.364 392.251 178.04 392.251H186.613C187.289 392.251 187.838 392.813 187.838 393.503V394.752C187.838 395.443 187.289 396.001 186.613 396.001H178.04Z" fill="#FFF"/>
<path d="M117.937 316.604C117.263 316.604 116.714 317.161 116.714 317.852C116.714 327.845 124.679 335.977 134.469 335.977C135.147 335.977 135.696 335.419 135.696 334.725V325.976C135.696 325.285 135.147 324.727 134.469 324.727C130.756 324.727 127.735 321.641 127.735 317.852C127.735 317.161 127.185 316.604 126.51 316.604H117.937Z" fill="#FFF"/>
<path d="M126.51 40.9875C127.185 40.9875 127.732 40.4304 127.732 39.7372C127.732 29.745 119.767 21.616 109.978 21.616C109.3 21.616 108.753 22.1774 108.753 22.8648V31.6154C108.753 32.3057 109.3 32.8642 109.978 32.8642C113.69 32.8642 116.714 35.9491 116.714 39.7372C116.714 40.4304 117.262 40.9875 117.937 40.9875H126.51Z" fill="#FFF"/>
<path d="M54.6753 32.8639C54.0004 32.8639 53.4531 32.3054 53.4531 31.6151V22.8659C53.4531 22.1771 54.0004 21.6171 54.6753 21.6171H55.9032C56.5796 21.6171 57.1282 22.1771 57.1282 22.8659V31.6151C57.1282 32.3054 56.5796 32.8639 55.9032 32.8639H54.6753Z" fill="#FFF"/>
<path d="M90.3681 32.8639C91.0472 32.8639 91.5959 32.3054 91.5959 31.6151V22.8645C91.5959 22.1771 91.0472 21.6157 90.3681 21.6157H89.143C88.4681 21.6157 87.918 22.1771 87.918 22.8645V31.6151C87.918 32.3054 88.4681 32.8639 89.143 32.8639H90.3681Z" fill="#FFF"/>
<path d="M117.935 63.2678C117.26 63.2678 116.709 62.7093 116.709 62.0161V60.7644C116.709 60.0784 117.26 59.5184 117.935 59.5184H126.506C127.183 59.5184 127.73 60.0784 127.73 60.7644V62.0161C127.73 62.7093 127.183 63.2678 126.506 63.2678H117.935Z" fill="#FFF"/>
<path d="M117.935 72.0529C117.26 72.0529 116.709 71.4943 116.709 70.8069V69.5566C116.709 68.8634 117.26 68.3034 117.935 68.3034H126.506C127.183 68.3034 127.73 68.8634 127.73 69.5566V70.8069C127.73 71.4943 127.183 72.0529 126.506 72.0529H117.935Z" fill="#FFF"/>
<path d="M117.935 153.327C117.26 153.327 116.709 152.768 116.709 152.076V150.826C116.709 150.136 117.26 149.575 117.935 149.575H126.506C127.183 149.575 127.73 150.136 127.73 150.826V152.076C127.73 152.768 127.183 153.327 126.506 153.327H117.935Z" fill="#FFF"/>
<path d="M117.935 179.087C117.26 179.087 116.709 178.53 116.709 177.838V176.59C116.709 175.899 117.26 175.338 117.935 175.338H126.506C127.183 175.338 127.73 175.899 127.73 176.59V177.838C127.73 178.53 127.183 179.087 126.506 179.087H117.935Z" fill="#FFF"/>
<path d="M117.935 272.57C117.26 272.57 116.709 272.01 116.709 271.319V270.067C116.709 269.381 117.26 268.821 117.935 268.821H126.506C127.183 268.821 127.73 269.381 127.73 270.067V271.319C127.73 272.01 127.183 272.57 126.506 272.57H117.935Z" fill="#FFF"/>
<path d="M117.935 220.685C117.26 220.685 116.709 220.126 116.709 219.433V218.183C116.709 217.496 117.26 216.936 117.935 216.936H126.506C127.183 216.936 127.73 217.496 127.73 218.183V219.433C127.73 220.126 127.183 220.685 126.506 220.685H117.935Z" fill="#FFF"/>
<path d="M117.935 288.813C117.26 288.813 116.709 288.254 116.709 287.567V286.317C116.709 285.622 117.26 285.063 117.935 285.063H126.506C127.183 285.063 127.73 285.622 127.73 286.317V287.567C127.73 288.254 127.183 288.813 126.506 288.813H117.935Z" fill="#FFF"/>
<path d="M32.5482 126.601C32.5482 128.649 30.905 130.326 28.8984 130.326H17.6625C15.6559 130.326 14.0127 128.649 14.0127 126.601V118.823C14.0127 116.775 15.6559 115.098 17.6625 115.098H28.8984C30.905 115.098 32.5482 116.775 32.5482 118.823V126.601Z" fill="#FFF"/>
<path d="M0 90.9057V64.19C0 63.5183 0.531825 62.9741 1.18714 62.9741H1.98839C2.46409 62.9741 2.89209 63.2634 3.08153 63.7059L8.30862 75.9681H18.2534V79.1275H8.30862L3.08153 91.3912C2.89209 91.8337 2.46409 92.1216 1.98839 92.1216H1.18714C0.531825 92.1216 0 91.5788 0 90.9057Z" fill="#FFF"/>
<path d="M12.5273 79.301V75.7965C12.5273 74.7811 13.3454 73.9504 14.3389 73.9504H18.0968V81.1456H14.3389C13.3454 81.1456 12.5273 80.3178 12.5273 79.301Z" fill="#FFF"/>
<path d="M15.0898 80.9905V74.1104C15.0898 72.9832 15.9935 72.0609 17.0965 72.0609H22.0808V83.0356H17.0965C15.9935 83.0356 15.0898 82.1147 15.0898 80.9905Z" fill="#FFF"/>
<path d="M636.4 395.999H648.515V46.3264H636.4V395.999Z" fill="#FFF"/>
<path d="M669.704 383.206L671.071 382.219L649.109 350.638L671.412 318.564L649.109 286.493L671.412 254.421L649.109 222.351L671.412 190.283L649.109 158.218L671.412 126.152L648.765 93.5971L647.401 94.5853L669.362 126.152L647.056 158.218L669.362 190.283L647.056 222.351L669.362 254.421L647.056 286.493L669.362 318.564L647.056 350.638L669.704 383.206Z" fill="#FFF"/>
<path d="M648.765 383.206L671.412 350.638L649.109 318.564L671.412 286.493L649.109 254.421L671.412 222.351L649.109 190.283L671.412 158.218L649.109 126.152L671.068 94.5853L669.706 93.5971L647.056 126.152L669.362 158.218L647.056 190.283L669.362 222.351L647.056 254.421L669.362 286.493L647.056 318.564L669.362 350.638L647.401 382.219L648.765 383.206Z" fill="#FFF"/>
<path d="M668.994 391.765H671.781V94.5833H668.994V391.765Z" fill="#FFF"/>
<path d="M644.056 391.765H650.746V69.6493H644.056V391.765Z" fill="#FFF"/>
<path d="M646.232 43.064C646.232 43.064 661.233 33.5516 650.635 18.1944C643.545 7.92147 645.31 0.000144958 645.31 0.000144958C645.31 0.000144958 638.932 5.80329 640.16 19.2929C640.16 19.2929 637.47 16.3913 638.395 10.6655C631.784 15.8313 627.942 33.2537 638.395 41.7235C638.395 41.7235 637.796 35.5423 643.172 36.0765C645.54 36.3113 648.845 37.7235 646.232 43.064Z" fill="#FFF"/>
<path d="M648.413 38.3507C648.413 38.3507 655.53 30.5869 649.228 21.5313C643.518 13.325 643.404 9.0199 643.404 9.0199C643.404 9.0199 639.771 19.4489 643.152 25.9596C643.152 25.9596 638.856 23.3287 637.702 19.0579C637.702 19.0579 631.92 26.8991 637.288 35.6553C637.288 35.6553 638.086 29.5672 643.171 29.8923C648.94 30.2632 648.922 36.3901 648.413 38.3507Z" fill="#FFF"/>
<path d="M633.712 53.1049C633.712 54.3566 634.717 55.3806 635.943 55.3806H648.974C650.201 55.3806 651.205 54.3566 651.205 53.1049V47.6498C651.205 46.398 650.201 45.3726 648.974 45.3726H635.943C634.717 45.3726 633.712 46.398 633.712 47.6498V53.1049Z" fill="#FFF"/>
<path d="M630.612 45.7664C630.612 47.0181 631.616 48.0436 632.843 48.0436H652.075C653.301 48.0436 654.303 47.0181 654.303 45.7664V42.6371C654.303 41.3854 653.301 40.3614 652.075 40.3614H632.843C631.616 40.3614 630.612 41.3854 630.612 42.6371V45.7664Z" fill="#FFF"/>
<path d="M641.613 70.2713C641.613 71.523 642.615 72.547 643.844 72.547H650.959C652.185 72.547 653.19 71.523 653.19 70.2713V69.326C653.19 68.0729 652.185 67.0489 650.959 67.0489H643.844C642.615 67.0489 641.613 68.0729 641.613 69.326V70.2713Z" fill="#FFF"/>
<path d="M633.182 393.723C633.182 394.975 634.185 395.999 635.41 395.999H672.769C673.998 395.999 675 394.975 675 393.723V382.713C675 381.461 673.998 380.436 672.769 380.436H635.41C634.185 380.436 633.182 381.461 633.182 382.713V393.723Z" fill="#FFF"/>
<path d="M633.182 94.867C633.182 96.1187 634.185 97.1441 635.41 97.1441H672.769C673.998 97.1441 675 96.1187 675 94.867V93.3145C675 92.0628 673.998 91.0388 672.769 91.0388H635.41C634.185 91.0388 633.182 92.0628 633.182 93.3145V94.867Z" fill="#FFF"/>
</g>
</svg>
