<svg width="227" height="60" viewBox="0 0 227 60" fill="none" xmlns="http://www.w3.org/2000/svg">
<g style="mix-blend-mode:luminosity" clip-path="url(#clip0_15_417)">
<path d="M75.5606 12.8641H80.4454C83.3793 12.8641 85.9839 12.2514 85.9839 8.7639C85.9839 5.27637 83.3793 4.67071 80.4454 4.67071H75.5606V12.8641ZM69.2627 0.00195312H82.1739C89.31 0.00195312 92.0733 4.33079 92.0733 8.7639C92.0733 13.197 89.31 17.5359 82.1739 17.5359H75.5616V27.3357H69.2637L69.2627 0.00195312Z" fill="#474647"/>
<path d="M93.4244 7.54462H99.1126V27.3377H93.4244V7.54462ZM99.1126 4.48025H93.4244V0H99.1126V4.48025Z" fill="#474647"/>
<path d="M115.43 15.3127C114.902 12.5582 113.659 11.1012 110.893 11.1012C110.305 11.0532 109.713 11.1252 109.154 11.313C108.594 11.5007 108.078 11.8004 107.636 12.1938C107.195 12.5873 106.837 13.0665 106.585 13.6025C106.332 14.1385 106.191 14.7202 106.168 15.3127H115.43ZM106.168 18.7612C106.329 22.2096 108.093 23.7749 111.25 23.7749C113.546 23.7749 115.385 22.4402 115.741 21.2169H120.754C119.157 25.8826 115.741 27.8791 111.048 27.8791C104.522 27.8791 100.47 23.5904 100.47 17.4646C100.43 16.0659 100.678 14.674 101.198 13.3759C101.718 12.0777 102.498 10.9012 103.491 9.91991C104.484 8.93859 105.667 8.17352 106.967 7.67251C108.268 7.17149 109.657 6.94529 111.048 7.00804C118.108 7.00804 121.516 12.6775 121.119 18.7632L106.168 18.7612Z" fill="#474647"/>
<path d="M129.558 7.54465H133.732V11.1836H129.558V20.9834C129.558 22.8224 130.048 23.2797 131.963 23.2797C132.556 23.2863 133.148 23.2353 133.732 23.1272V27.3759C132.628 27.5175 131.515 27.5815 130.403 27.5674C126.921 27.5674 123.868 26.7993 123.868 22.8545V11.1836H120.419V7.54465H123.87V1.60742H129.558V7.54465Z" fill="#474647"/>
<path d="M136.459 7.5446H141.871V11.2217H141.952C142.545 9.96407 143.481 8.90087 144.65 8.15478C145.82 7.40869 147.176 7.01014 148.561 7.00513C148.984 7.01027 149.405 7.07784 149.809 7.20567V12.2525C149.134 12.1233 148.448 12.0608 147.761 12.066C143.595 12.066 142.152 14.9348 142.152 18.4113V27.3357H136.464L136.459 7.5446Z" fill="#474647"/>
<path d="M160.329 23.773C164.215 23.773 165.381 20.5993 165.381 17.4607C165.381 14.283 164.216 11.1053 160.329 11.1053C156.478 11.1053 155.321 14.283 155.321 17.4607C155.321 20.5993 156.478 23.773 160.329 23.773ZM160.329 7.00513C166.865 7.00513 171.071 11.1434 171.071 17.4607C171.071 23.7389 166.865 27.8772 160.329 27.8772C153.832 27.8772 149.628 23.7389 149.628 17.4607C149.628 11.1434 153.832 7.00513 160.329 7.00513Z" fill="#474647"/>
<path d="M69.2627 32.1228H89.3898V37.1776H75.5616V43.4949H87.5427V48.1677H75.5616V59.4585H69.2637L69.2627 32.1228Z" fill="#474647"/>
<path d="M91.5284 39.6724H97.2166V59.4605H91.5284V39.6724ZM97.2166 36.6111H91.5284V32.1228H97.2166V36.6111Z" fill="#474647"/>
<path d="M109.635 55.9029C113.527 55.9029 114.687 52.7272 114.687 49.5856C114.687 46.4099 113.524 43.2292 109.635 43.2292C105.784 43.2292 104.628 46.4089 104.628 49.5856C104.628 52.7292 105.784 55.9029 109.635 55.9029ZM109.635 39.134C116.166 39.134 120.379 43.2633 120.379 49.5836C120.379 55.8618 116.167 59.9991 109.635 59.9991C103.148 59.9991 98.939 55.8628 98.939 49.5836C98.939 43.2663 103.148 39.134 109.635 39.134Z" fill="#474647"/>
<path d="M121.929 39.6714H127.349V43.3414H127.427C128.021 42.0836 128.957 41.0206 130.127 40.2752C131.297 39.5299 132.654 39.1328 134.039 39.1299C134.46 39.1356 134.878 39.1994 135.281 39.3194V44.3772C134.608 44.2422 133.922 44.175 133.235 44.1767C129.063 44.1767 127.622 47.0485 127.622 50.5361V59.4524H121.928L121.929 39.6714Z" fill="#474647"/>
<path d="M149.692 47.4378C149.17 44.6772 147.928 43.2262 145.165 43.2262C144.576 43.1779 143.984 43.2497 143.424 43.4373C142.864 43.625 142.348 43.9245 141.906 44.318C141.464 44.7114 141.106 45.1907 140.853 45.7268C140.601 46.263 140.459 46.845 140.436 47.4378H149.692ZM140.436 50.8832C140.595 54.3286 142.356 55.9039 145.525 55.9039C147.805 55.9039 149.652 54.5632 150.016 53.3319H155.03C153.427 58.0066 150.016 59.9991 145.325 59.9991C138.794 59.9991 134.747 55.7043 134.747 49.5826C134.747 43.6474 139.03 39.1331 145.325 39.1331C152.387 39.1331 155.791 44.7955 155.389 50.8832H140.436Z" fill="#474647"/>
<path d="M156.612 39.6714H162.031V42.4239H162.147C162.848 41.3897 163.794 40.5473 164.901 39.9725C166.007 39.3978 167.238 39.1089 168.483 39.1319C174.535 39.1319 176.055 42.3858 176.055 47.2792V59.4564H170.366V48.2819C170.366 45.025 169.369 43.4166 166.719 43.4166C163.631 43.4166 162.31 45.0691 162.31 49.0871V59.4594H156.615L156.612 39.6714Z" fill="#474647"/>
<path d="M185.471 39.6714H189.643V43.3123H185.471V53.1101C185.471 54.9451 185.958 55.4064 187.879 55.4064C188.471 55.4118 189.062 55.359 189.643 55.249V59.5006C188.539 59.646 187.426 59.7094 186.312 59.6901C182.833 59.6901 179.781 58.926 179.781 54.9832V43.3123H176.336V39.6714H179.781V33.7332H185.469L185.471 39.6714Z" fill="#474647"/>
<path d="M191.466 39.6724H197.154V59.4605H191.466V39.6724ZM197.154 36.6111H191.466V32.1228H197.154V36.6111Z" fill="#474647"/>
<path d="M199.511 39.6715H204.925V42.4241H205.043C205.744 41.3888 206.69 40.5455 207.796 39.9706C208.903 39.3958 210.135 39.1075 211.38 39.1321C217.423 39.1321 218.947 42.386 218.947 47.2793V59.4566H213.259V48.2821C213.259 45.0252 212.261 43.4168 209.608 43.4168C206.522 43.4168 205.201 45.0693 205.201 49.0873V59.4596H199.511V39.6715Z" fill="#474647"/>
<path d="M221.305 39.6724H227.001V59.4605H221.305V39.6724ZM227.001 36.6111H221.305V32.1228H227.001V36.6111Z" fill="#474647"/>
<path d="M58.4502 0.019043H-0.00128174V59.4425H58.4482V0.019043H58.4502Z" fill="#069782"/>
<path d="M33.4362 51.1888H26.0226V34.0911H9.18164V9.4397H50.2722V16.9813H33.4362V26.5485H47.6387V34.0901H33.4362V51.1888ZM28.1642 49.0109H31.2927V31.9121H45.4951V28.7264H31.2927V14.8034H48.1307V11.6136H11.3242V31.9081H28.1642V49.0109ZM28.1642 28.7264H14.4527V14.8034H28.1642V28.7264ZM16.5962 26.5485H26.0226V16.9813H16.5972L16.5962 26.5485Z" fill="white"/>
</g>
<defs>
<clipPath id="clip0_15_417">
<rect width="227" height="60" fill="white" transform="translate(0.000732422)"/>
</clipPath>
</defs>
</svg>
