<svg width="160" height="42" viewBox="0 0 160 42" fill="none" xmlns="http://www.w3.org/2000/svg">
<g id="logopietro 3" clip-path="url(#clip0_178_8659)">
<g id="Group">
<path id="Vector" d="M53.2581 9.00498H56.7011C58.7691 9.00498 60.6049 8.5761 60.6049 6.13483C60.6049 3.69356 58.7691 3.2696 56.7011 3.2696H53.2581V9.00498ZM48.819 0.00146484H57.9194C62.9493 0.00146484 64.8969 3.03165 64.8969 6.13483C64.8969 9.23801 62.9493 12.2752 57.9194 12.2752H53.2588V19.1351H48.8197L48.819 0.00146484Z" fill="white"/>
<path id="Vector_2" d="M65.8493 5.28124H69.8586V19.1364H65.8493V5.28124ZM69.8586 3.13617H65.8493V0H69.8586V3.13617Z" fill="white"/>
<path id="Vector_3" d="M81.3596 10.7189C80.9875 8.79072 80.1118 7.77084 78.162 7.77084C77.7474 7.7372 77.3304 7.78761 76.9358 7.91905C76.5413 8.0505 76.1775 8.26024 75.8664 8.53567C75.5552 8.81109 75.3031 9.1465 75.1253 9.5217C74.9474 9.89691 74.8475 10.3041 74.8315 10.7189H81.3596ZM74.8315 13.1328C74.9447 15.5467 76.1883 16.6424 78.4138 16.6424C80.0316 16.6424 81.3279 15.7081 81.579 14.8518H85.1121C83.9867 18.1178 81.579 19.5153 78.271 19.5153C73.6716 19.5153 70.8152 16.5132 70.8152 12.2252C70.7872 11.2461 70.9619 10.2718 71.3283 9.36307C71.6946 8.45437 72.2449 7.63083 72.9446 6.94391C73.6443 6.25699 74.4784 5.72144 75.3949 5.37073C76.3114 5.02002 77.2905 4.86168 78.271 4.9056C83.2475 4.9056 85.6495 8.87425 85.3696 13.1342L74.8315 13.1328Z" fill="white"/>
<path id="Vector_4" d="M91.3181 5.2813H94.2596V7.82857H91.3181V14.6884C91.3181 15.9757 91.6634 16.2958 93.0132 16.2958C93.4312 16.3005 93.8486 16.2647 94.2596 16.1891V19.1631C93.4816 19.2623 92.6975 19.3071 91.9131 19.2972C89.459 19.2972 87.3074 18.7595 87.3074 15.9982V7.82857H84.8765V5.2813H87.3088V1.12524H91.3181V5.2813Z" fill="white"/>
<path id="Vector_5" d="M96.182 5.2812H99.9964V7.85513H100.053C100.472 6.97483 101.131 6.23058 101.956 5.70832C102.78 5.18606 103.736 4.90707 104.712 4.90356C105.011 4.90717 105.307 4.95446 105.592 5.04395V8.5767C105.116 8.48628 104.633 8.44255 104.149 8.44615C101.212 8.44615 100.195 10.4543 100.195 12.8879V19.135H96.1855L96.182 5.2812Z" fill="white"/>
<path id="Vector_6" d="M113.007 16.641C115.746 16.641 116.567 14.4195 116.567 12.2225C116.567 9.99809 115.747 7.77371 113.007 7.77371C110.293 7.77371 109.477 9.99809 109.477 12.2225C109.477 14.4195 110.293 16.641 113.007 16.641ZM113.007 4.90356C117.613 4.90356 120.578 7.80038 120.578 12.2225C120.578 16.6172 117.613 19.514 113.007 19.514C108.427 19.514 105.464 16.6172 105.464 12.2225C105.464 7.80038 108.427 4.90356 113.007 4.90356Z" fill="white"/>
<path id="Vector_7" d="M48.819 22.4858H63.0055V26.0242H53.2587V30.4463H61.7035V33.7172H53.2587V41.6208H48.8197L48.819 22.4858Z" fill="white"/>
<path id="Vector_8" d="M64.5129 27.7706H68.5221V41.6222H64.5129V27.7706ZM68.5221 25.6276H64.5129V22.4858H68.5221V25.6276Z" fill="white"/>
<path id="Vector_9" d="M77.275 39.132C80.0182 39.132 80.8363 36.909 80.8363 34.7099C80.8363 32.4869 80.0161 30.2604 77.275 30.2604C74.5607 30.2604 73.7462 32.4862 73.7462 34.7099C73.7462 36.9104 74.5607 39.132 77.275 39.132ZM77.275 27.3938C81.8787 27.3938 84.8484 30.2843 84.8484 34.7085C84.8484 39.1032 81.8794 41.9993 77.275 41.9993C72.7031 41.9993 69.7362 39.1039 69.7362 34.7085C69.7362 30.2864 72.7031 27.3938 77.275 27.3938Z" fill="white"/>
<path id="Vector_10" d="M85.9407 27.7699H89.7608V30.3389H89.8157C90.2343 29.4585 90.8941 28.7143 91.7189 28.1926C92.5438 27.6709 93.4997 27.3929 94.4763 27.3909C94.7729 27.3949 95.0676 27.4395 95.352 27.5235V31.064C94.877 30.9695 94.3937 30.9224 93.9094 30.9236C90.9692 30.9236 89.9535 32.9339 89.9535 35.3752V41.6167H85.94L85.9407 27.7699Z" fill="white"/>
<path id="Vector_11" d="M105.51 33.2064C105.141 31.274 104.266 30.2583 102.318 30.2583C101.904 30.2245 101.486 30.2747 101.091 30.4061C100.697 30.5374 100.333 30.7471 100.021 31.0225C99.7098 31.2979 99.4574 31.6334 99.2794 32.0087C99.1013 32.384 99.0011 32.7914 98.985 33.2064H105.51ZM98.985 35.6181C99.0975 38.0299 100.338 39.1327 102.572 39.1327C104.179 39.1327 105.481 38.1942 105.737 37.3322H109.272C108.142 40.6046 105.737 41.9993 102.431 41.9993C97.8279 41.9993 94.975 38.993 94.975 34.7078C94.975 30.5531 97.9939 27.3931 102.431 27.3931C107.409 27.3931 109.808 31.3568 109.524 35.6181H98.985Z" fill="white"/>
<path id="Vector_12" d="M110.387 27.7699H114.206V29.6966H114.288C114.782 28.9727 115.449 28.383 116.229 27.9807C117.009 27.5784 117.877 27.3762 118.754 27.3922C123.02 27.3922 124.091 29.67 124.091 33.0953V41.6194H120.082V33.7973C120.082 31.5174 119.378 30.3915 117.511 30.3915C115.334 30.3915 114.403 31.5483 114.403 34.3609V41.6215H110.389L110.387 27.7699Z" fill="white"/>
<path id="Vector_13" d="M130.728 27.77H133.669V30.3187H130.728V37.1772C130.728 38.4617 131.071 38.7846 132.425 38.7846C132.842 38.7883 133.259 38.7514 133.669 38.6743V41.6505C132.891 41.7523 132.106 41.7966 131.321 41.7831C128.868 41.7831 126.717 41.2483 126.717 38.4883V30.3187H124.289V27.77H126.717V23.6133H130.727L130.728 27.77Z" fill="white"/>
<path id="Vector_14" d="M134.953 27.7706H138.962V41.6222H134.953V27.7706ZM138.962 25.6276H134.953V22.4858H138.962V25.6276Z" fill="white"/>
<path id="Vector_15" d="M140.624 27.77H144.44V29.6968H144.523C145.017 28.9721 145.684 28.3818 146.464 27.9794C147.244 27.577 148.112 27.3752 148.99 27.3924C153.249 27.3924 154.324 29.6701 154.324 33.0955V41.6196H150.314V33.7974C150.314 31.5175 149.611 30.3917 147.741 30.3917C145.566 30.3917 144.635 31.5484 144.635 34.361V41.6217H140.624V27.77Z" fill="white"/>
<path id="Vector_16" d="M155.985 27.7706H160V41.6222H155.985V27.7706ZM160 25.6276H155.985V22.4858H160V25.6276Z" fill="white"/>
</g>
<path id="Vector_17" d="M41.1978 0.0136719H-0.00146484V41.6101H41.1964V0.0136719H41.1978Z" fill="#069782"/>
<path id="Vector_18" d="M23.5668 35.8323H18.3414V23.8639H6.4711V6.60791H35.4336V11.887H23.5668V18.584H33.5774V23.8632H23.5668V35.8323ZM19.8509 34.3077H22.056V22.3386H32.0665V20.1086H22.056V10.3625H33.9241V8.12967H7.98126V22.3358H19.8509V34.3077ZM19.8509 20.1086H10.1864V10.3625H19.8509V20.1086ZM11.6972 18.584H18.3414V11.887H11.6979L11.6972 18.584Z" fill="white"/>
</g>
<defs>
<clipPath id="clip0_178_8659">
<rect width="160" height="42" fill="white"/>
</clipPath>
</defs>
</svg>
