<svg width="57" height="57" viewBox="0 0 57 57" fill="none" xmlns="http://www.w3.org/2000/svg">
<g id="&#226;&#128;&#148;&#208;&#187;&#208;&#190;&#208;&#185;_1_1_">
<g id="Group">
<path id="Vector" d="M49.742 39.8833H48.6555L48.1351 42.3471H47.3941L47.9145 39.8833L46.7877 39.8787L46.9584 39.0626H49.9224L49.742 39.8833ZM46.2229 42.3486H45.1655L44.2289 41.116H43.8278L43.5586 42.3486H42.7982L43.5004 39.0626H44.2677L44.0041 40.2952H44.3829L45.7844 39.0626H46.8349L45.0087 40.7056L46.2215 42.3486H46.2229ZM38.1704 42.3197L38.7254 39.8848H37.9844C37.7818 39.8848 37.6347 40.0221 37.5404 40.2952L36.7855 42.3486H36.0653L36.7994 40.2952C37.0505 39.4745 37.4974 39.0626 38.1399 39.0626H39.6219L38.9114 42.3197H38.1704ZM33.519 42.3197L34.074 39.8848H35.1855C35.4325 39.8848 35.5422 40.0237 35.4825 40.2952L35.0329 42.3288H35.7739L36.2235 40.2952C36.4039 39.4806 36.082 39.0626 35.341 39.0626H33.4884L32.7793 42.3197H33.5204H33.519ZM27.4813 41.1907L27.6631 40.2205C27.713 39.9474 27.6131 39.8101 27.3661 39.8101H26.6251C26.3781 39.8101 26.2296 39.9474 26.1811 40.2205L25.9993 41.1907C25.9452 41.4638 26.0423 41.6011 26.2893 41.6011H27.0303C27.2773 41.6011 27.4272 41.4638 27.4813 41.1907ZM28.2223 41.1907C28.0655 42.0115 27.6159 42.4234 26.8749 42.4234H26.1339C25.3637 42.4234 25.0626 42.0084 25.2347 41.1907L25.4401 40.2205C25.6121 39.4043 26.0395 39.0427 26.7805 39.0427H27.5215C28.2625 39.0427 28.5581 39.3997 28.4041 40.2205L28.2223 41.1907ZM24.9585 42.3486H23.9011L22.9645 41.116H22.5301L22.2623 42.3486H21.5172L22.2374 39.0626H22.9784L22.7105 40.2952H23.1199L24.5214 39.0626H25.5719L23.7471 40.7056L24.9599 42.3486H24.9585ZM30.77 42.3273L31.2724 39.8757H31.8413C32.0883 39.8757 32.1993 40.016 32.1383 40.2861L31.6803 42.3181H32.4213L32.8793 40.2861C33.0624 39.4729 32.7377 39.0534 31.9967 39.0534H28.9744L28.2584 42.3395H28.9994L29.56 39.8757H30.1289C30.3759 39.8757 30.4828 40.0145 30.4259 40.2861L29.9985 42.3258H30.7728L30.77 42.3273ZM42.5942 41.5203H40.2519L40.3795 40.9192L42.6816 40.9253L42.8412 40.2495H40.5238C40.5877 39.9977 40.7431 39.8711 40.9915 39.8711L42.9231 39.8803L43.1146 39.058L41.1691 39.0488C40.3976 39.0458 39.9216 39.4562 39.7454 40.28L39.3041 42.3364L42.3944 42.3486L42.5956 41.5218L42.5942 41.5203Z" fill="white"/>
<path id="Vector_2" fill-rule="evenodd" clip-rule="evenodd" d="M16.9213 0.00305122C7.26737 11.5471 -1.59696 15.1047 5.80894 25.0316C3.68445 28.3223 -4.25847 34.8869 2.98785 43.6254C2.75195 46.6765 5.49533 49.7261 7.44915 52.2235C8.34835 51.5004 8.42189 50.5026 9.2864 49.8192C7.97646 53.2944 10.0038 55.3082 11.3859 56.4554C15.3879 50.4752 22.0986 47.1876 17.103 42.4079C22.9173 38.8839 28.8925 26.275 24.7587 20.7219C26.4045 17.4282 22.7244 9.61112 20.3335 9.04056C21.2466 3.26473 17.8038 0.985522 16.9227 0L16.9213 0.00305122Z" fill="#0071CA"/>
<path id="Vector_3" fill-rule="evenodd" clip-rule="evenodd" d="M13.9822 36.6306C19.1484 39.8099 10.0663 45.7551 8.40385 48.1975C4.28946 43.2348 12.3809 38.5772 13.9822 36.6306Z" fill="white"/>
<path id="Vector_4" fill-rule="evenodd" clip-rule="evenodd" d="M12.8807 38.7495C17.0145 41.2942 9.74739 46.0509 8.41664 48.0052C5.12374 44.0341 11.5985 40.3071 12.8807 38.7495Z" fill="#FECC00"/>
<path id="Vector_5" fill-rule="evenodd" clip-rule="evenodd" d="M16.6257 2.32056C20.6249 4.99031 19.6924 10.8562 15.6959 14.4687C12.5626 17.5565 9.65272 20.3162 6.5194 23.6923C5.57024 22.8106 1.75003 18.9524 5.84916 13.741C8.55092 10.3054 12.9262 6.39689 16.6271 2.32056H16.6257Z" fill="white"/>
<path id="Vector_6" fill-rule="evenodd" clip-rule="evenodd" d="M16.072 3.53027C15.4906 4.14966 14.9008 4.76141 14.3069 5.36859C12.7417 6.9674 11.1431 8.52958 9.57504 10.1253C8.22624 11.4999 6.97458 12.7737 5.77148 14.2902C3.25983 18.0309 4.17707 20.5923 6.66235 23.285C9.50565 20.2857 12.9762 16.9004 15.875 13.9515C18.9764 11.3229 19.154 6.18935 16.072 3.53027Z" fill="#FECC00"/>
<path id="Vector_7" fill-rule="evenodd" clip-rule="evenodd" d="M19.9338 12.5923C31.8427 25.8206 6.0379 40.0756 4.97218 44.3533C3.15713 42.4845 -1.98273 36.5179 5.14425 27.6528C9.99687 22.2126 15.5392 17.5901 19.9338 12.5908V12.5923Z" fill="white"/>
<path id="Vector_8" fill-rule="evenodd" clip-rule="evenodd" d="M15.1354 5.43561C14.6455 5.95888 14.1474 6.47452 13.6464 6.98559C12.3268 8.33267 10.9794 9.65077 9.65692 10.9963C8.51905 12.1558 7.23408 13.3793 6.21971 14.6577C4.19651 17.2069 4.0064 19.982 6.64155 23.2635C9.17263 20.7356 12.8679 16.7447 15.3782 14.0475C18.1244 11.2267 17.7331 7.67668 15.134 5.43408L15.1354 5.43561Z" fill="#FECC00"/>
<path id="Vector_9" fill-rule="evenodd" clip-rule="evenodd" d="M18.0064 16.3909C28.3555 27.8327 5.93108 40.1639 5.00691 43.8665C3.42915 42.2494 -1.03632 37.0884 5.15678 29.4208C9.37385 24.7144 14.189 20.7174 18.0078 16.3924L18.0064 16.3909Z" fill="#FECC00"/>
<path id="Vector_10" fill-rule="evenodd" clip-rule="evenodd" d="M16.1414 20.417C25.3346 29.6132 6.00739 40.3258 5.25528 43.3372C3.9717 42.0222 0.648277 37.2563 5.68684 31.0167C9.11851 27.1875 13.0345 23.935 16.1414 20.417Z" fill="#FECC00"/>
<g id="Group_2">
<path id="Vector_11" fill-rule="evenodd" clip-rule="evenodd" d="M32.9986 30.2904C31.7095 30.2934 30.4217 30.2934 29.1326 30.2812C28.2611 30.2721 28.2695 30.4322 28.0724 31.2576C27.6103 33.192 27.2454 35.1524 26.8208 37.096L26.6251 37.9899H22.0694L22.3803 36.5513C22.9256 34.0295 23.4529 31.5017 24.008 28.9829C24.5006 26.7464 25.8397 25.5931 27.9351 25.5931L35.5616 25.5901L35.3951 26.3162C36.05 25.8662 36.7799 25.5901 37.4932 25.5809C38.2314 25.5718 38.9697 25.5885 39.7079 25.5763C40.6557 25.5595 41.5923 25.8692 42.2806 26.6091C42.3958 26.7327 42.4985 26.8624 42.5914 26.9966L42.8579 25.587H50.5108C51.3531 25.587 52.1912 25.8204 52.7837 26.5191C53.5886 27.4665 53.5789 28.8243 53.3499 30.0158C53.2111 30.7374 52.9253 31.4056 52.5562 32.0143C52.7046 32.7877 52.6713 33.5871 52.527 34.3682C52.0733 36.8213 50.4553 37.9869 48.2364 37.9869H41.3065L41.3009 38.0082L40.4767 38.0021C39.7523 37.996 39.0279 37.9991 38.3036 37.9945L36.9354 37.9838L37.6667 34.9251L36.5052 34.9342L35.7795 37.9884L31.1822 37.9762L31.5318 36.5147C32.0272 34.4414 32.5046 32.3621 32.9986 30.2873V30.2904ZM42.3486 33.6405H42.4319L42.7482 31.9731L42.3486 33.6405ZM37.6403 30.1698C37.6112 30.2461 37.5862 30.3392 37.5737 30.3926C37.5695 30.4139 37.5654 30.4338 37.5598 30.4551H38.7227C38.7435 30.3605 38.7657 30.2659 38.7865 30.1714C38.4035 30.1653 38.0233 30.1607 37.6389 30.1698H37.6403Z" fill="white"/>
<path id="Vector_12" d="M51.3947 31.7883C51.6181 32.4595 51.6486 33.2422 51.4863 34.1361C51.1505 35.9256 50.0667 36.8196 48.2364 36.8196H41.8282L42.1946 34.8059H48.6027C49.2133 34.8059 49.5894 34.4718 49.717 33.799C49.8433 33.1293 49.5949 32.7921 48.9843 32.7921H43.678L44.0596 30.7814H49.3659C49.9765 30.7784 50.3526 30.4443 50.4802 29.773C50.6079 29.1033 50.3581 28.7661 49.7476 28.7661H43.3394L43.721 26.7539H50.5108C52.0871 26.7539 52.688 27.7608 52.3105 29.773C52.1787 30.4443 51.8734 31.1155 51.3947 31.7852V31.7883ZM32.5573 36.8135C33.1457 34.3543 33.6549 32.1346 34.2433 29.6754C34.6513 27.9988 36.3539 26.763 37.5029 26.7478C38.3674 26.7371 39.0904 26.7539 39.7232 26.7432C41.491 26.7112 42.615 28.1361 42.0114 30.5038L41.8699 31.056L40.4836 36.8349C39.6801 36.8288 39.114 36.8334 38.3105 36.8273L39.0474 33.7456L35.6837 33.7731L34.9593 36.8181L32.5573 36.812V36.8135ZM36.1943 31.6205L39.5372 31.625C39.6676 31.1765 39.7037 30.9202 39.8647 30.2658C39.9951 29.7654 40.0881 29.056 39.3415 29.0133C38.6644 29.03 38.194 29.0041 37.4321 29.0072C36.8549 29.0468 36.612 29.7532 36.5413 30.1224C36.39 30.7539 36.3456 30.9889 36.1943 31.6205ZM23.4127 36.8212C23.9608 34.2887 24.4909 31.7883 25.039 29.2574C25.4165 27.5731 26.3059 26.7234 27.9337 26.76H34.1961L33.6536 29.1201C32.1438 29.1262 30.6507 29.1063 29.1395 29.1124C27.4355 29.0728 27.2787 30.0507 27.0428 30.9599C26.6057 32.9553 26.2227 34.8257 25.7856 36.8212H23.4113H23.4127Z" fill="#0071CA"/>
</g>
<g id="Group_3">
<path id="Vector_13" fill-rule="evenodd" clip-rule="evenodd" d="M48.7179 14.2657H53.1806C55.7173 14.2657 56.9328 15.9881 56.3986 18.6975L56.2002 19.7028C55.7048 22.2155 54.213 23.6403 51.8526 23.6403H48.3613L47.7965 26.6579H45.4889V26.6625L40.2408 26.664L39.9702 25.9394C39.6926 25.1964 39.361 24.4809 39.0321 23.7624C38.8989 24.4199 38.7657 25.0774 38.6394 25.7365L38.4618 26.664H33.9089V26.6595C33.8506 26.664 33.791 26.6671 33.7327 26.6671L24.8059 26.664L25.6316 22.2185H26.5502C26.095 21.6479 25.9396 20.8943 26.0701 20.1056C26.342 18.4641 26.6709 16.8378 26.9637 15.2009L27.133 14.252L28.0128 14.2581C28.8051 14.2642 29.5975 14.252 30.3898 14.2581L31.6956 14.2672L31.4208 15.6707C31.2321 16.6364 30.9921 17.6082 30.8172 18.5815H32.5421L33.3608 14.2565H36.2485H40.9512L40.689 15.6601C40.6474 15.8797 40.6057 16.0994 40.5627 16.3176L42.5956 14.2565H48.7207L48.7152 14.2626L48.7179 14.2657ZM45.1794 18.159C44.4634 18.905 43.7418 19.6464 43.041 20.4092L44.2011 23.3673L45.1808 18.159H45.1794ZM52.0247 18.612H49.4645L49.3965 18.9858H51.9206C51.929 18.9858 51.9387 18.9858 51.9498 18.9858L52.0233 18.612H52.0247Z" fill="white"/>
<path id="Vector_14" fill-rule="evenodd" clip-rule="evenodd" d="M28.0086 15.4268C28.7968 15.4329 29.5975 15.4207 30.3857 15.4268C30.1734 16.5084 29.8708 18.0111 29.6599 19.0928C29.603 19.732 29.8181 19.7716 30.7159 19.7518H33.4094L34.2281 15.4268H36.6398L34.9496 24.3774C34.8678 25.0501 34.2961 25.5032 33.7355 25.5002L26.1103 25.4971L26.503 23.3873H30.9241C32.4325 23.3873 32.6767 23.4132 32.7932 22.9464L33.0042 21.9731C31.6221 21.9608 29.7723 21.9761 28.3916 21.9639C28.0794 21.9807 26.911 21.671 27.1191 20.3148C27.4341 18.5512 27.6936 17.1904 28.01 15.4253L28.0086 15.4268ZM37.1158 15.4268H39.6524C39.4373 16.574 39.1265 18.0081 38.9128 19.1568L39.3277 19.1675L43.0133 15.4283H46.2049C44.8061 17.0043 43.1798 18.5725 41.7825 20.1485L43.8806 25.4987H40.9568C40.435 24.0997 39.6691 22.7069 39.1612 21.2881C39.0904 21.0913 38.9905 21.1081 38.8392 21.1081H38.4798C38.1995 22.5741 37.8845 24.0326 37.6042 25.5002H35.2175L37.1186 15.4283L37.1158 15.4268ZM53.1432 18.4505C53.275 17.7823 53.021 17.4451 52.4119 17.4451H48.5931L48.1046 20.153H51.9234C52.534 20.153 52.8143 20.1241 52.9461 19.4559L53.1446 18.4505H53.1432ZM55.3606 18.4505L55.1622 19.4559C54.7667 21.4635 53.683 22.4734 51.8526 22.4734H47.4954L46.9306 25.491H44.8839L46.7752 15.4329H53.1792C55.0096 15.4329 55.7353 16.4383 55.3592 18.4505H55.3606Z" fill="#FECC00"/>
</g>
</g>
</g>
</svg>
