<svg width="227" height="60" viewBox="0 0 227 60" fill="none" xmlns="http://www.w3.org/2000/svg">
<g id="logopietro 1" clip-path="url(#clip0_13_370)">
<g id="Group">
<path id="Vector" d="M75.5599 12.8641H80.4447C83.3786 12.8641 85.9832 12.2514 85.9832 8.7639C85.9832 5.27637 83.3786 4.67071 80.4447 4.67071H75.5599V12.8641ZM69.262 0.00195312H82.1731C89.3093 0.00195312 92.0726 4.33079 92.0726 8.7639C92.0726 13.197 89.3093 17.5359 82.1731 17.5359H75.5609V27.3357H69.263L69.262 0.00195312Z" fill="#474647"/>
<path id="Vector_2" d="M93.4237 7.54462H99.1119V27.3377H93.4237V7.54462ZM99.1119 4.48025H93.4237V0H99.1119V4.48025Z" fill="#474647"/>
<path id="Vector_3" d="M115.429 15.3127C114.901 12.5582 113.659 11.1012 110.892 11.1012C110.304 11.0532 109.713 11.1252 109.153 11.313C108.593 11.5007 108.077 11.8004 107.635 12.1938C107.194 12.5873 106.836 13.0665 106.584 13.6025C106.332 14.1385 106.19 14.7202 106.167 15.3127H115.429ZM106.167 18.7612C106.328 22.2096 108.092 23.7749 111.25 23.7749C113.545 23.7749 115.384 22.4402 115.74 21.2169H120.753C119.156 25.8826 115.74 27.8791 111.047 27.8791C104.522 27.8791 100.469 23.5904 100.469 17.4646C100.429 16.0659 100.677 14.674 101.197 13.3759C101.717 12.0777 102.497 10.9012 103.49 9.91991C104.483 8.93859 105.666 8.17352 106.967 7.67251C108.267 7.17149 109.656 6.94529 111.047 7.00804C118.107 7.00804 121.515 12.6775 121.118 18.7632L106.167 18.7612Z" fill="#474647"/>
<path id="Vector_4" d="M129.558 7.54465H133.731V11.1836H129.558V20.9834C129.558 22.8224 130.048 23.2797 131.963 23.2797C132.556 23.2863 133.148 23.2353 133.731 23.1272V27.3759C132.627 27.5175 131.515 27.5815 130.402 27.5674C126.92 27.5674 123.867 26.7993 123.867 22.8545V11.1836H120.419V7.54465H123.869V1.60742H129.558V7.54465Z" fill="#474647"/>
<path id="Vector_5" d="M136.458 7.5446H141.87V11.2217H141.951C142.545 9.96407 143.48 8.90087 144.65 8.15478C145.819 7.40869 147.175 7.01014 148.56 7.00513C148.984 7.01027 149.404 7.07784 149.808 7.20567V12.2525C149.134 12.1233 148.448 12.0608 147.761 12.066C143.594 12.066 142.151 14.9348 142.151 18.4113V27.3357H136.463L136.458 7.5446Z" fill="#474647"/>
<path id="Vector_6" d="M160.329 23.773C164.215 23.773 165.38 20.5993 165.38 17.4607C165.38 14.283 164.216 11.1053 160.329 11.1053C156.478 11.1053 155.32 14.283 155.32 17.4607C155.32 20.5993 156.478 23.773 160.329 23.773ZM160.329 7.00513C166.864 7.00513 171.07 11.1434 171.07 17.4607C171.07 23.7389 166.864 27.8772 160.329 27.8772C153.831 27.8772 149.627 23.7389 149.627 17.4607C149.627 11.1434 153.831 7.00513 160.329 7.00513Z" fill="#474647"/>
<path id="Vector_7" d="M69.262 32.1228H89.3891V37.1776H75.5609V43.4949H87.542V48.1677H75.5609V59.4585H69.263L69.262 32.1228Z" fill="#474647"/>
<path id="Vector_8" d="M91.5277 39.6724H97.2159V59.4605H91.5277V39.6724ZM97.2159 36.6111H91.5277V32.1228H97.2159V36.6111Z" fill="#474647"/>
<path id="Vector_9" d="M109.634 55.9029C113.526 55.9029 114.687 52.7272 114.687 49.5856C114.687 46.4099 113.523 43.2292 109.634 43.2292C105.783 43.2292 104.627 46.4089 104.627 49.5856C104.627 52.7292 105.783 55.9029 109.634 55.9029ZM109.634 39.134C116.165 39.134 120.379 43.2633 120.379 49.5836C120.379 55.8618 116.166 59.9991 109.634 59.9991C103.148 59.9991 98.9383 55.8628 98.9383 49.5836C98.9383 43.2663 103.148 39.134 109.634 39.134Z" fill="#474647"/>
<path id="Vector_10" d="M121.928 39.6714H127.348V43.3414H127.426C128.02 42.0836 128.956 41.0206 130.126 40.2752C131.297 39.5299 132.653 39.1328 134.038 39.1299C134.459 39.1356 134.877 39.1994 135.281 39.3194V44.3772C134.607 44.2422 133.921 44.175 133.234 44.1767C129.063 44.1767 127.622 47.0485 127.622 50.5361V59.4524H121.927L121.928 39.6714Z" fill="#474647"/>
<path id="Vector_11" d="M149.692 47.4378C149.169 44.6772 147.927 43.2262 145.164 43.2262C144.576 43.1779 143.984 43.2497 143.424 43.4373C142.864 43.625 142.347 43.9245 141.905 44.318C141.463 44.7114 141.105 45.1907 140.853 45.7268C140.6 46.263 140.458 46.845 140.435 47.4378H149.692ZM140.435 50.8832C140.595 54.3286 142.355 55.9039 145.524 55.9039C147.805 55.9039 149.651 54.5632 150.015 53.3319H155.03C153.426 58.0066 150.015 59.9991 145.324 59.9991C138.793 59.9991 134.746 55.7043 134.746 49.5826C134.746 43.6474 139.029 39.1331 145.324 39.1331C152.386 39.1331 155.79 44.7955 155.388 50.8832H140.435Z" fill="#474647"/>
<path id="Vector_12" d="M156.611 39.6714H162.03V42.4239H162.146C162.847 41.3897 163.794 40.5473 164.9 39.9725C166.006 39.3978 167.237 39.1089 168.483 39.1319C174.534 39.1319 176.054 42.3858 176.054 47.2792V59.4564H170.366V48.2819C170.366 45.025 169.368 43.4166 166.718 43.4166C163.631 43.4166 162.31 45.0691 162.31 49.0871V59.4594H156.614L156.611 39.6714Z" fill="#474647"/>
<path id="Vector_13" d="M185.47 39.6714H189.643V43.3123H185.47V53.1101C185.47 54.9451 185.957 55.4064 187.878 55.4064C188.47 55.4118 189.061 55.359 189.643 55.249V59.5006C188.538 59.646 187.425 59.7094 186.312 59.6901C182.832 59.6901 179.78 58.926 179.78 54.9832V43.3123H176.335V39.6714H179.78V33.7332H185.468L185.47 39.6714Z" fill="#474647"/>
<path id="Vector_14" d="M191.465 39.6724H197.153V59.4605H191.465V39.6724ZM197.153 36.6111H191.465V32.1228H197.153V36.6111Z" fill="#474647"/>
<path id="Vector_15" d="M199.51 39.6715H204.924V42.4241H205.043C205.743 41.3888 206.689 40.5455 207.796 39.9706C208.902 39.3958 210.134 39.1075 211.379 39.1321C217.422 39.1321 218.947 42.386 218.947 47.2793V59.4566H213.259V48.2821C213.259 45.0252 212.261 43.4168 209.607 43.4168C206.522 43.4168 205.2 45.0693 205.2 49.0873V59.4596H199.51V39.6715Z" fill="#474647"/>
<path id="Vector_16" d="M221.304 39.6724H227V59.4605H221.304V39.6724ZM227 36.6111H221.304V32.1228H227V36.6111Z" fill="#474647"/>
</g>
<path id="Vector_17" d="M58.4495 0.019043H-0.0019989V59.4425H58.4475V0.019043H58.4495Z" fill="#069782"/>
<path id="Vector_18" d="M33.4355 51.1888H26.0219V34.0911H9.18091V9.4397H50.2715V16.9813H33.4355V26.5485H47.6379V34.0901H33.4355V51.1888ZM28.1634 49.0109H31.2919V31.9121H45.4944V28.7264H31.2919V14.8034H48.1299V11.6136H11.3235V31.9081H28.1634V49.0109ZM28.1634 28.7264H14.4519V14.8034H28.1634V28.7264ZM16.5955 26.5485H26.0219V16.9813H16.5965L16.5955 26.5485Z" fill="white"/>
</g>
<defs>
<clipPath id="clip0_13_370">
<rect width="227" height="60" fill="white"/>
</clipPath>
</defs>
</svg>
