<svg width="47" height="52" viewBox="0 0 47 52" fill="none" xmlns="http://www.w3.org/2000/svg">
<g id="Group 163">
<path id="path1258" d="M40.2388 26.8175L41.7003 20.522C41.71 20.4814 41.7204 20.4407 41.7316 20.4001C42.3522 18.1703 45.5437 18.3929 45.9523 20.6718C46.0166 21.0313 46.0173 21.4079 45.9447 21.7888L44.056 34.093C43.8958 35.1373 43.3833 36.0917 42.6055 36.7978L38.1816 40.8143C37.3215 41.5933 36.7777 42.6396 36.6084 43.7545" stroke="#333333" stroke-width="1.5" stroke-miterlimit="10" stroke-linecap="round" stroke-linejoin="round"/>
<path id="path1260" d="M34.7617 37.673L40.0554 32.319C40.7588 31.6065 40.7588 30.4552 40.0554 29.7426C39.3523 29.0322 38.2122 29.0322 37.5091 29.7426L32.7308 34.5766C32.4039 34.9061 31.9494 35.073 31.4889 35.0324L31.0748 34.996C29.8287 34.8869 28.5892 35.2699 27.6163 36.0638C26.3835 37.0717 25.7165 38.6252 25.831 40.2237L26.2578 45.1903" stroke="#333333" stroke-width="1.5" stroke-miterlimit="10" stroke-linecap="round" stroke-linejoin="round"/>
<path id="path1262" d="M38.3351 49.3737L37.9851 46.808C37.8819 46.0505 37.1974 45.5177 36.447 45.6097L25.9281 46.8979C25.1603 46.992 24.6175 47.7046 24.7231 48.4792L25.0669 51" stroke="#333333" stroke-width="1.5" stroke-miterlimit="10" stroke-linecap="round" stroke-linejoin="round"/>
<path id="path1264" d="M6.76102 26.8175L5.29952 20.522C5.29 20.4814 5.27942 20.4407 5.26842 20.4001C4.6478 18.1703 1.45618 18.3929 1.04769 20.6718C0.983218 21.0313 0.982563 21.4079 1.05522 21.7888L2.94381 34.093C3.1042 35.1373 3.61648 36.0917 4.39431 36.7978L8.81838 40.8143C9.67831 41.5933 10.2221 42.6396 10.3914 43.7545" stroke="#333333" stroke-width="1.5" stroke-miterlimit="10" stroke-linecap="round" stroke-linejoin="round"/>
<path id="path1266" d="M12.2383 37.673L6.94434 32.319C6.24121 31.6065 6.24121 30.4552 6.94434 29.7426C7.64748 29.0322 8.78757 29.0322 9.4907 29.7426L14.2692 34.5766C14.5959 34.9061 15.0506 35.073 15.5108 35.0324L15.9249 34.996C17.171 34.8869 18.4108 35.2699 19.3837 36.0638C20.6165 37.0717 21.2834 38.6252 21.169 40.2237L20.7419 45.1903" stroke="#333333" stroke-width="1.5" stroke-miterlimit="10" stroke-linecap="round" stroke-linejoin="round"/>
<path id="path1268" d="M8.66406 49.3737L9.01426 46.808C9.11752 46.0505 9.80203 45.5177 10.5524 45.6097L21.0713 46.8979C21.8392 46.992 22.3819 47.7046 22.2761 48.4792L21.9325 51" stroke="#333333" stroke-width="1.5" stroke-miterlimit="10" stroke-linecap="round" stroke-linejoin="round"/>
<path id="path1270" d="M23.5005 29.1648C24.2102 29.1819 27.7483 29.1841 30.5291 26.4129C33.7066 23.2481 33.3393 19.0047 33.2498 18.198C32.9883 15.8356 31.9582 14.4639 30.2267 11.7784C28.6076 9.26621 25.9156 5.65412 23.5005 0.999921C21.0851 5.65412 18.3934 9.26621 16.774 11.7784C15.0425 14.4639 14.0125 15.8356 13.7509 18.198C13.6616 19.0047 13.2941 23.2481 16.4716 26.4129C19.2527 29.1841 22.7906 29.1819 23.5005 29.1648Z" stroke="#FECC00" stroke-width="1.5" stroke-miterlimit="10" stroke-linecap="round" stroke-linejoin="round"/>
</g>
</svg>
