<svg width="80" height="81" viewBox="0 0 80 81" fill="none" xmlns="http://www.w3.org/2000/svg">
<g id="&#226;&#128;&#148;&#208;&#187;&#208;&#190;&#208;&#185;_1_1_">
<g id="Group">
<path id="Vector" d="M70.4031 56.9626H68.8653L68.1288 60.4498H67.08L67.8165 56.9626L66.2217 56.9561L66.4633 55.8009H70.6585L70.4031 56.9626ZM65.4223 60.4519H63.9258L62.6 58.7072H62.0324L61.6514 60.4519H60.5751L61.5689 55.8009H62.655L62.2818 57.5456H62.818L64.8017 55.8009H66.2885L63.7038 58.1264L65.4204 60.4519H65.4223ZM54.025 60.4109L54.8107 56.9647H53.7619C53.4751 56.9647 53.2669 57.1591 53.1334 57.5456L52.0649 60.4519H51.0456L52.0846 57.5456C52.4401 56.3839 53.0725 55.8009 53.9818 55.8009H56.0794L55.0738 60.4109H54.025ZM47.4416 60.4109L48.2272 56.9647H49.8004C50.15 56.9647 50.3052 57.1612 50.2207 57.5456L49.5844 60.4238H50.6332L51.2695 57.5456C51.5248 56.3925 51.0692 55.8009 50.0204 55.8009H47.3984L46.3948 60.4109H47.4436H47.4416ZM38.8961 58.813L39.1534 57.4398C39.2241 57.0533 39.0827 56.8589 38.7331 56.8589H37.6843C37.3347 56.8589 37.1245 57.0533 37.0558 57.4398L36.7985 58.813C36.7219 59.1995 36.8594 59.3939 37.209 59.3939H38.2578C38.6074 59.3939 38.8195 59.1995 38.8961 58.813ZM39.9449 58.813C39.7229 59.9747 39.0866 60.5577 38.0378 60.5577H36.989C35.899 60.5577 35.4728 59.9704 35.7163 58.813L36.007 57.4398C36.2505 56.2846 36.8554 55.7728 37.9042 55.7728H38.953C40.0018 55.7728 40.4202 56.2781 40.2022 57.4398L39.9449 58.813ZM35.3255 60.4519H33.8289L32.5031 58.7072H31.8884L31.5093 60.4519H30.4547L31.474 55.8009H32.5228L32.1437 57.5456H32.7231L34.7068 55.8009H36.1936L33.6109 58.1264L35.3274 60.4519H35.3255ZM43.5508 60.4217L44.2618 56.9518H45.0671C45.4167 56.9518 45.5738 57.1504 45.4874 57.5326L44.8392 60.4087H45.888L46.5362 57.5326C46.7954 56.3817 46.3358 55.7879 45.287 55.7879H41.0094L39.9959 60.439H41.0447L41.8382 56.9518H42.6435C42.9931 56.9518 43.1443 57.1483 43.0638 57.5326L42.4588 60.4195H43.5548L43.5508 60.4217ZM60.2864 59.2794H56.9711L57.1518 58.4287L60.4101 58.4373L60.636 57.4808H57.356C57.4464 57.1245 57.6664 56.9453 58.0179 56.9453L60.7519 56.9583L61.0229 55.7944L58.2693 55.7815C57.1773 55.7771 56.5037 56.358 56.2542 57.524L55.6297 60.4346L60.0036 60.4519L60.2884 59.2816L60.2864 59.2794Z" fill="#35322F"/>
<path id="Vector_2" fill-rule="evenodd" clip-rule="evenodd" d="M23.9498 0.517746C10.286 16.8568 -2.26028 21.8921 8.22178 35.9424C5.21484 40.5998 -6.0273 49.8911 4.2289 62.2593C3.89501 66.5778 7.77791 70.8941 10.5433 74.4288C11.816 73.4053 11.9201 71.9931 13.1437 71.0258C11.2896 75.9446 14.1591 78.7948 16.1152 80.4185C21.7795 71.9543 31.2776 67.3011 24.2071 60.5362C32.4364 55.5483 40.8935 37.7021 35.0427 29.8425C37.372 25.1807 32.1634 14.1167 28.7793 13.3091C30.0717 5.13422 25.1989 1.9083 23.9517 0.513428L23.9498 0.517746Z" fill="#0071CA"/>
<path id="Vector_3" fill-rule="evenodd" clip-rule="evenodd" d="M19.7899 52.3591C27.1021 56.8589 14.2474 65.2735 11.8945 68.7305C6.07116 61.7064 17.5234 55.1143 19.7899 52.3591Z" fill="white"/>
<path id="Vector_4" fill-rule="evenodd" clip-rule="evenodd" d="M18.2309 55.3583C24.0818 58.9599 13.7961 65.6924 11.9126 68.4584C7.25196 62.8379 16.4162 57.5629 18.2309 55.3583Z" fill="#FECC00"/>
<path id="Vector_5" fill-rule="evenodd" clip-rule="evenodd" d="M23.5314 3.79761C29.1918 7.57629 27.8719 15.8786 22.2155 20.9917C17.7807 25.362 13.6621 29.2681 9.22733 34.0465C7.88393 32.7985 2.47694 27.3377 8.2787 19.9617C12.1027 15.0991 18.2953 9.56712 23.5334 3.79761H23.5314Z" fill="white"/>
<path id="Vector_6" fill-rule="evenodd" clip-rule="evenodd" d="M22.7478 5.50989C21.9249 6.38654 21.0901 7.2524 20.2495 8.11178C18.0341 10.3747 15.7715 12.5857 13.5522 14.8443C11.6431 16.7898 9.87158 18.5928 8.16876 20.7391C4.61385 26.0335 5.91208 29.6589 9.42967 33.47C13.454 29.2249 18.366 24.4335 22.4689 20.2597C26.8585 16.5393 27.1099 9.27346 22.7478 5.50989Z" fill="#FECC00"/>
<path id="Vector_7" fill-rule="evenodd" clip-rule="evenodd" d="M28.2137 18.3358C45.069 37.0587 8.54583 57.2347 7.03745 63.2892C4.4685 60.6441 -2.80629 52.1993 7.281 39.6519C14.1492 31.9521 21.9936 25.4095 28.2137 18.3337V18.3358Z" fill="white"/>
<path id="Vector_8" fill-rule="evenodd" clip-rule="evenodd" d="M21.4221 8.20681C20.7288 8.94743 20.0237 9.67726 19.3147 10.4006C17.4469 12.3072 15.5398 14.1728 13.6681 16.0773C12.0576 17.7183 10.2389 19.45 8.80316 21.2595C5.9396 24.8676 5.67052 28.7952 9.40023 33.4398C12.9826 29.8619 18.2129 24.2133 21.7658 20.3958C25.6526 16.4033 25.0988 11.3787 21.4201 8.20465L21.4221 8.20681Z" fill="#FECC00"/>
<path id="Vector_9" fill-rule="evenodd" clip-rule="evenodd" d="M25.4857 23.7123C40.1335 39.9067 8.39465 57.3599 7.0866 62.6004C4.8535 60.3116 -1.46677 53.0068 7.29872 42.1545C13.2674 35.4932 20.0826 29.836 25.4877 23.7145L25.4857 23.7123Z" fill="#FECC00"/>
<path id="Vector_10" fill-rule="evenodd" clip-rule="evenodd" d="M22.846 29.4106C35.8577 42.4265 8.50265 57.5888 7.43815 61.8511C5.62141 59.9898 0.917547 53.2444 8.04896 44.413C12.906 38.9933 18.4485 34.3898 22.846 29.4106Z" fill="#FECC00"/>
<g id="Group_2">
<path id="Vector_11" fill-rule="evenodd" clip-rule="evenodd" d="M46.7051 43.3853C44.8805 43.3896 43.0579 43.3896 41.2333 43.3723C39.9999 43.3594 40.0116 43.5861 39.7327 44.7542C39.0787 47.4922 38.5622 50.2668 37.9612 53.0177L37.6843 54.283H31.2363L31.6763 52.2468C32.4481 48.6776 33.1945 45.0997 33.9801 41.5348C34.6773 38.3693 36.5726 36.7369 39.5383 36.7369L50.3326 36.7326L50.097 37.7604C51.024 37.1234 52.0571 36.7326 53.0666 36.7197C54.1115 36.7067 55.1563 36.7305 56.2012 36.7132C57.5426 36.6894 58.8683 37.1278 59.8425 38.175C60.0055 38.3499 60.1509 38.5334 60.2825 38.7235L60.6595 36.7283H71.4912C72.6834 36.7283 73.8697 37.0587 74.7083 38.0476C75.8474 39.3885 75.8337 41.3102 75.5096 42.9966C75.3132 44.0179 74.9086 44.9637 74.3862 45.8252C74.5963 46.92 74.5492 48.0514 74.345 49.1569C73.7027 52.629 71.4126 54.2787 68.2721 54.2787H58.4638L58.4559 54.3089L57.2893 54.3003C56.264 54.2916 55.2388 54.2959 54.2136 54.2895L52.277 54.2744L53.3121 49.9451L51.6682 49.958L50.641 54.2808L44.1342 54.2636L44.6291 52.195C45.3303 49.2606 46.0059 46.3175 46.7051 43.3809V43.3853ZM59.9387 48.127H60.0566L60.5044 45.7669L59.9387 48.127ZM53.2748 43.2147C53.2335 43.3227 53.1982 43.4544 53.1805 43.5299C53.1746 43.5602 53.1687 43.5882 53.1609 43.6185H54.8067C54.8362 43.4846 54.8676 43.3507 54.8971 43.2168C54.355 43.2082 53.8168 43.2017 53.2728 43.2147H53.2748Z" fill="white"/>
<path id="Vector_12" d="M72.7423 45.5056C73.0585 46.4556 73.1017 47.5633 72.8719 48.8287C72.3966 51.3615 70.8627 52.6268 68.2722 52.6268H59.2022L59.7208 49.7766H68.7907C69.6548 49.7766 70.1871 49.3037 70.3678 48.3515C70.5465 47.4036 70.195 46.9264 69.3308 46.9264H61.8203L62.3604 44.0805H69.8709C70.7351 44.0762 71.2673 43.6033 71.448 42.6532C71.6287 41.7053 71.2752 41.2281 70.411 41.2281H61.3411L61.8812 38.3801H71.4912C73.7224 38.3801 74.5728 39.8052 74.0386 42.6532C73.852 43.6033 73.4199 44.5533 72.7423 45.5013V45.5056ZM46.0805 52.6181C46.9133 49.1374 47.6341 45.9957 48.4668 42.515C49.0442 40.142 51.4541 38.393 53.0803 38.3714C54.3039 38.3563 55.3272 38.3801 56.2228 38.3649C58.725 38.3196 60.3159 40.3363 59.4615 43.6875L59.2612 44.4691L57.2991 52.6484C56.1619 52.6397 55.3606 52.6462 54.2234 52.6376L55.2663 48.2759L50.5055 48.3148L49.4803 52.6246L46.0805 52.616V52.6181ZM51.2283 45.2681L55.9596 45.2745C56.1442 44.6397 56.1953 44.277 56.4231 43.3506C56.6078 42.6424 56.7393 41.6384 55.6827 41.5779C54.7242 41.6017 54.0584 41.5649 52.9802 41.5693C52.1631 41.6254 51.8194 42.6251 51.7193 43.1477C51.5052 44.0416 51.4423 44.3741 51.2283 45.2681ZM33.1375 52.6289C33.9133 49.0446 34.6636 45.5056 35.4394 41.9234C35.9736 39.5396 37.2325 38.3369 39.5364 38.3887H48.4L47.6321 41.7291C45.4952 41.7377 43.3819 41.7096 41.2431 41.7183C38.8313 41.6621 38.6093 43.0462 38.2754 44.3331C37.6568 47.1574 37.1147 49.8046 36.496 52.6289H33.1356H33.1375Z" fill="#0071CA"/>
</g>
<g id="Group_3">
<path id="Vector_13" fill-rule="evenodd" clip-rule="evenodd" d="M68.9537 20.7045H75.27C78.8603 20.7045 80.5808 23.1423 79.8246 26.9771L79.5438 28.4C78.8426 31.9563 76.7313 33.9731 73.3905 33.9731H68.4489L67.6496 38.2441H64.3834V38.2505L56.9554 38.2527L56.5724 37.227C56.1796 36.1755 55.7102 35.1628 55.2447 34.1458C55.0562 35.0764 54.8676 36.0071 54.6889 36.9399L54.4375 38.2527H47.9935V38.2462C47.911 38.2527 47.8266 38.257 47.7441 38.257L35.1094 38.2527L36.278 31.9606H37.5782C36.934 31.1531 36.7141 30.0864 36.8987 28.9701C37.2836 26.6467 37.7491 24.345 38.1635 22.0281L38.4031 20.6851L39.6483 20.6937C40.7698 20.7023 41.8913 20.6851 43.0127 20.6937L44.8609 20.7067L44.472 22.6932C44.2049 24.06 43.8651 25.4354 43.6176 26.813H46.0589L47.2177 20.6915H51.3049H57.961L57.5898 22.678C57.5309 22.989 57.4719 23.2999 57.4111 23.6087L60.2884 20.6915H68.9576L68.9498 20.7002L68.9537 20.7045ZM63.9454 26.2149C62.932 27.2708 61.9107 28.3202 60.9188 29.3998L62.5608 33.5866L63.9474 26.2149H63.9454ZM73.634 26.8562H70.0104L69.9141 27.3852H73.4867C73.4985 27.3852 73.5122 27.3852 73.5279 27.3852L73.632 26.8562H73.634Z" fill="white"/>
<path id="Vector_14" fill-rule="evenodd" clip-rule="evenodd" d="M39.6424 22.3477C40.758 22.3563 41.8912 22.3391 43.0068 22.3477C42.7063 23.8786 42.2782 26.0055 41.9796 27.5364C41.8991 28.4411 42.2035 28.4972 43.4743 28.4692H47.2865L48.4452 22.3477H51.8587L49.4665 35.016C49.3507 35.9682 48.5415 36.6095 47.748 36.6052L36.9556 36.6009L37.5114 33.6147H43.7689C45.9038 33.6147 46.2494 33.6514 46.4144 32.9906L46.713 31.613C44.7568 31.5958 42.1387 31.6174 40.1845 31.6001C39.7426 31.6238 38.0889 31.1855 38.3835 29.2659C38.8293 26.7698 39.1966 24.8438 39.6444 22.3456L39.6424 22.3477ZM52.5324 22.3477H56.1227C55.8182 23.9715 55.3783 26.0012 55.0758 27.6271L55.6631 27.6422L60.8795 22.3499H65.3968C63.4171 24.5804 61.1152 26.8001 59.1374 29.0306L62.1071 36.6031H57.9688C57.2304 34.623 56.1462 32.6516 55.4274 30.6435C55.3272 30.365 55.1858 30.3887 54.9717 30.3887H54.463C54.0663 32.4638 53.6205 34.528 53.2237 36.6052H49.8456L52.5363 22.3499L52.5324 22.3477ZM75.217 26.6273C75.4036 25.6816 75.0442 25.2044 74.182 25.2044H68.7769L68.0856 29.0371H73.4906C74.3548 29.0371 74.7515 28.996 74.9381 28.0503L75.219 26.6273H75.217ZM78.3555 26.6273L78.0747 28.0503C77.5149 30.8918 75.981 32.3213 73.3904 32.3213H67.2234L66.424 36.5923H63.5271L66.204 22.3563H75.2681C77.8586 22.3563 78.8858 23.7793 78.3536 26.6273H78.3555Z" fill="#FECC00"/>
</g>
</g>
</g>
</svg>
